<?xml version="1.0" encoding="UTF-8" standalone="no"?>
<svg
   width="893.92706"
   zoomAndPan="magnify"
   viewBox="0 0 670.4453 51.52732"
   height="68.703094"
   preserveAspectRatio="xMidYMid"
   version="1.0"
   id="svg13"
   sodipodi:docname="1.svg"
   inkscape:export-filename="1.png"
   inkscape:export-xdpi="96"
   inkscape:export-ydpi="96"
   xmlns:inkscape="http://www.inkscape.org/namespaces/inkscape"
   xmlns:sodipodi="http://sodipodi.sourceforge.net/DTD/sodipodi-0.dtd"
   xmlns="http://www.w3.org/2000/svg"
   xmlns:svg="http://www.w3.org/2000/svg">
  <sodipodi:namedview
     id="namedview13"
     pagecolor="#ffffff"
     bordercolor="#000000"
     borderopacity="0.25"
     inkscape:showpageshadow="2"
     inkscape:pageopacity="0.0"
     inkscape:pagecheckerboard="0"
     inkscape:deskcolor="#d1d1d1" />
  <defs
     id="defs1">
    <clipPath
       id="15d1770b69">
      <path
         d="m 367,358.23437 h 37 v 51.75 h -37 z m 0,0"
         clip-rule="nonzero"
         id="path1" />
    </clipPath>
  </defs>
  <g
     clip-path="url(#15d1770b69)"
     id="g3"
     transform="translate(-48.773437,-358.23438)">
    <path
       fill="#a87b05"
       d="m 403.09375,383.94922 v 0.0976 c -11.53906,0 -17.64063,8.89063 -17.64063,25.71485 h -0.0664 c 0,-16.82422 -6.09766,-25.71485 -17.64063,-25.71485 v -0.0976 c 11.54297,0 17.64063,-8.89063 17.64063,-25.71485 h 0.0664 c 0,16.82422 6.10157,25.71485 17.64063,25.71485 z m 0,0"
       fill-opacity="1"
       fill-rule="nonzero"
       id="path2" />
    <path
       fill="#a87b05"
       d="m 403.09375,383.94922 v 0.0976 c -11.53906,0 -17.64063,8.89063 -17.64063,25.71485 h -0.0664 c 0,-16.82422 -6.09766,-25.71485 -17.64063,-25.71485 v -0.0976 c 11.54297,0 17.64063,-8.89063 17.64063,-25.71485 h 0.0664 c 0,16.82422 6.10157,25.71485 17.64063,25.71485 z m 0,0"
       fill-opacity="1"
       fill-rule="nonzero"
       id="path3" />
  </g>
  <path
     fill="#a87b05"
     d="m 305.55078,25.734374 v 0.0625 c -6.95703,0 -10.63672,5.36328 -10.63672,15.50781 h -0.043 c 0,-10.14453 -3.67969,-15.50781 -10.64062,-15.50781 v -0.0625 c 6.96093,0 10.64062,-5.36328 10.64062,-15.50781 h 0.043 c 0,10.14453 3.67969,15.50781 10.63672,15.50781 z m 0,0"
     fill-opacity="1"
     fill-rule="nonzero"
     id="path4" />
  <path
     fill="#a87b05"
     d="m 386.21093,25.734374 v 0.0625 c -6.96093,0 -10.63671,5.36328 -10.63671,15.50781 h -0.043 c 0,-10.14453 -3.67969,-15.50781 -10.64063,-15.50781 v -0.0625 c 6.96094,0 10.64063,-5.36328 10.64063,-15.50781 h 0.043 c 0,10.14453 3.67578,15.50781 10.63671,15.50781 z m 0,0"
     fill-opacity="1"
     fill-rule="nonzero"
     id="path5" />
  <path
     fill="#a87b05"
     d="M 272.36718,26.683594 H 1.4609377 c -0.52343701,0 -0.94921901,-0.42188 -0.94921901,-0.94922 0,-0.52344 0.425782,-0.94922 0.94921901,-0.94922 H 272.36718 c 0.52344,0 0.94922,0.42578 0.94922,0.94922 0,0.52734 -0.42578,0.94922 -0.94922,0.94922 z m 0,0"
     fill-opacity="1"
     fill-rule="nonzero"
     id="path6" />
  <path
     fill="#a87b05"
     d="m 6.1679687,25.644534 c 0,0.41015 -0.07813,0.80468 -0.234375,1.17968 -0.15625,0.37891 -0.378906,0.71094 -0.667969,1.00391 -0.289062,0.28906 -0.621093,0.51172 -1,0.66797 -0.378906,0.15625 -0.769531,0.23437 -1.179687,0.23437 -0.410156,0 -0.800781,-0.0781 -1.179687,-0.23437 -0.378907,-0.15625 -0.710938,-0.37891 -1.00000001,-0.66797 -0.289063,-0.29297 -0.511719,-0.625 -0.667969,-1.00391 -0.160157,-0.375 -0.23828099947876,-0.76953 -0.23828099947876,-1.17968 0,-0.40625 0.0781199994788,-0.80079 0.23828099947876,-1.17969 0.15625,-0.37891 0.378906,-0.71094 0.667969,-1 0.28906201,-0.28906 0.62109301,-0.51172 1.00000001,-0.66797 0.378906,-0.15625 0.769531,-0.23438 1.179687,-0.23438 0.410156,0 0.800781,0.0781 1.179687,0.23438 0.378907,0.15625 0.710938,0.37891 1,0.66797 0.289063,0.28906 0.511719,0.62109 0.667969,1 0.15625,0.3789 0.234375,0.77344 0.234375,1.17969 z m 0,0"
     fill-opacity="1"
     fill-rule="nonzero"
     id="path7" />
  <path
     fill="#a87b05"
     d="m 20.640625,25.644534 c 0,0.26562 -0.02734,0.52734 -0.07812,0.78906 -0.05078,0.25781 -0.128907,0.51172 -0.226563,0.7539 -0.101563,0.2461 -0.226563,0.47657 -0.375,0.69922 -0.148437,0.21875 -0.3125,0.42188 -0.5,0.60938 -0.1875,0.1875 -0.390625,0.35547 -0.613281,0.5039 -0.21875,0.14454 -0.453125,0.26954 -0.695313,0.3711 -0.246093,0.10156 -0.496093,0.17969 -0.757812,0.23047 -0.257813,0.0508 -0.523438,0.0781 -0.785157,0.0781 -0.265624,0 -0.527343,-0.0273 -0.789062,-0.0781 -0.257812,-0.0508 -0.511719,-0.12891 -0.753906,-0.23047 -0.246094,-0.10156 -0.480469,-0.22656 -0.699219,-0.3711 -0.21875,-0.14843 -0.421875,-0.3164 -0.609375,-0.5039 -0.1875,-0.1875 -0.355469,-0.39063 -0.503906,-0.60938 -0.144532,-0.22265 -0.269532,-0.45312 -0.371094,-0.69922 -0.101562,-0.24218 -0.179688,-0.49609 -0.230469,-0.7539 -0.05078,-0.26172 -0.07813,-0.52344 -0.07813,-0.78906 0,-0.26563 0.02734,-0.52735 0.07813,-0.78516 0.05078,-0.26172 0.128907,-0.51172 0.230469,-0.75781 0.101562,-0.2461 0.226562,-0.47657 0.371094,-0.69532 0.148437,-0.22265 0.316406,-0.42578 0.503906,-0.61328 0.1875,-0.1875 0.390625,-0.35547 0.609375,-0.5 0.21875,-0.14843 0.453125,-0.27343 0.699219,-0.375 0.242187,-0.10156 0.496094,-0.17578 0.753906,-0.22656 0.261719,-0.0547 0.523438,-0.0781 0.789062,-0.0781 0.261719,0 0.527344,0.0234 0.785157,0.0781 0.261719,0.0508 0.511719,0.125 0.757812,0.22656 0.242188,0.10157 0.476563,0.22657 0.695313,0.375 0.222656,0.14453 0.425781,0.3125 0.613281,0.5 0.1875,0.1875 0.351563,0.39063 0.5,0.61328 0.148437,0.21875 0.273437,0.44922 0.375,0.69532 0.09766,0.24609 0.175781,0.49609 0.226563,0.75781 0.05078,0.25781 0.07812,0.51953 0.07812,0.78516 z m 0,0"
     fill-opacity="1"
     fill-rule="nonzero"
     id="path8" />
  <path
     fill="#a87b05"
     d="m 35.347657,25.644534 c 0,0.3125 -0.02734,0.62109 -0.08984,0.92578 -0.05859,0.30468 -0.148438,0.60156 -0.269531,0.89062 -0.117188,0.28906 -0.265625,0.5625 -0.4375,0.82031 -0.175781,0.25782 -0.371094,0.5 -0.589844,0.71875 -0.222656,0.22266 -0.460937,0.41797 -0.71875,0.58985 -0.261719,0.17187 -0.535156,0.32031 -0.820313,0.4375 -0.289062,0.12109 -0.585937,0.21094 -0.890624,0.27344 -0.304688,0.0586 -0.613282,0.0898 -0.925782,0.0898 -0.3125,0 -0.621094,-0.0312 -0.925781,-0.0898 -0.304687,-0.0625 -0.601563,-0.15235 -0.890625,-0.27344 -0.289062,-0.11719 -0.5625,-0.26563 -0.820312,-0.4375 -0.257813,-0.17188 -0.5,-0.36719 -0.71875,-0.58985 -0.21875,-0.21875 -0.417969,-0.46093 -0.589844,-0.71875 -0.171875,-0.25781 -0.320313,-0.53125 -0.4375,-0.82031 -0.121094,-0.28906 -0.210938,-0.58594 -0.269532,-0.89062 -0.0625,-0.30469 -0.09375,-0.61328 -0.09375,-0.92578 0,-0.3125 0.03125,-0.6211 0.09375,-0.92579 0.05859,-0.30468 0.148438,-0.60156 0.269532,-0.89062 0.117187,-0.28516 0.265625,-0.55859 0.4375,-0.82031 0.171875,-0.25782 0.371094,-0.4961 0.589844,-0.71875 0.21875,-0.21875 0.460937,-0.41407 0.71875,-0.58985 0.257812,-0.17187 0.53125,-0.3164 0.820312,-0.4375 0.289062,-0.11718 0.585938,-0.20703 0.890625,-0.26953 0.304687,-0.0625 0.613281,-0.0898 0.925781,-0.0898 0.3125,0 0.621094,0.0273 0.925782,0.0898 0.304687,0.0625 0.601562,0.15235 0.890624,0.26953 0.285157,0.1211 0.558594,0.26563 0.820313,0.4375 0.257813,0.17578 0.496094,0.3711 0.71875,0.58985 0.21875,0.22265 0.414063,0.46093 0.589844,0.71875 0.171875,0.26172 0.320312,0.53515 0.4375,0.82031 0.121093,0.28906 0.210937,0.58594 0.269531,0.89062 0.0625,0.30469 0.08984,0.61329 0.08984,0.92579 z m 0,0"
     fill-opacity="1"
     fill-rule="nonzero"
     id="path9" />
  <path
     fill="#a87b05"
     d="M 668.98828,26.683594 H 398.08203 c -0.52344,0 -0.94922,-0.42188 -0.94922,-0.94922 0,-0.52344 0.42578,-0.94922 0.94922,-0.94922 h 270.90625 c 0.52344,0 0.94531,0.42578 0.94531,0.94922 0,0.52734 -0.42187,0.94922 -0.94531,0.94922 z m 0,0"
     fill-opacity="1"
     fill-rule="nonzero"
     id="path10" />
  <path
     fill="#a87b05"
     d="m 670.44531,25.644534 c 0,0.41015 -0.0781,0.80468 -0.23438,1.17968 -0.15625,0.37891 -0.3789,0.71094 -0.66796,1.00391 -0.28907,0.28906 -0.625,0.51172 -1,0.66797 -0.37891,0.15625 -0.77344,0.23437 -1.1836,0.23437 -0.40625,0 -0.80078,-0.0781 -1.17969,-0.23437 -0.375,-0.15625 -0.71093,-0.37891 -1,-0.66797 -0.28906,-0.29297 -0.51171,-0.625 -0.66796,-1.00391 -0.15625,-0.375 -0.23438,-0.76953 -0.23438,-1.17968 0,-0.40625 0.0781,-0.80079 0.23438,-1.17969 0.15625,-0.37891 0.3789,-0.71094 0.66796,-1 0.28907,-0.28906 0.625,-0.51172 1,-0.66797 0.37891,-0.15625 0.77344,-0.23438 1.17969,-0.23438 0.41016,0 0.80469,0.0781 1.1836,0.23438 0.375,0.15625 0.71093,0.37891 1,0.66797 0.28906,0.28906 0.51171,0.62109 0.66796,1 0.15625,0.3789 0.23438,0.77344 0.23438,1.17969 z m 0,0"
     fill-opacity="1"
     fill-rule="nonzero"
     id="path11" />
  <path
     fill="#a87b05"
     d="m 657.87109,25.644534 c 0,0.26562 -0.0234,0.52734 -0.0781,0.78906 -0.0508,0.25781 -0.125,0.51172 -0.22657,0.7539 -0.10156,0.2461 -0.22656,0.47657 -0.375,0.69922 -0.14453,0.21875 -0.3125,0.42188 -0.5,0.60938 -0.1875,0.1875 -0.39062,0.35547 -0.61328,0.5039 -0.21875,0.14454 -0.45312,0.26954 -0.69531,0.3711 -0.24609,0.10156 -0.49609,0.17969 -0.75781,0.23047 -0.25782,0.0508 -0.51953,0.0781 -0.78516,0.0781 -0.26562,0 -0.52734,-0.0273 -0.78906,-0.0781 -0.25781,-0.0508 -0.51172,-0.12891 -0.75391,-0.23047 -0.24609,-0.10156 -0.47656,-0.22656 -0.69922,-0.3711 -0.21875,-0.14843 -0.42187,-0.3164 -0.60937,-0.5039 -0.1875,-0.1875 -0.35547,-0.39063 -0.50391,-0.60938 -0.14453,-0.22265 -0.26953,-0.45312 -0.37109,-0.69922 -0.10156,-0.24218 -0.17969,-0.49609 -0.23047,-0.7539 -0.0508,-0.26172 -0.0781,-0.52344 -0.0781,-0.78906 0,-0.26563 0.0273,-0.52735 0.0781,-0.78516 0.0508,-0.26172 0.12891,-0.51172 0.23047,-0.75781 0.10156,-0.2461 0.22656,-0.47657 0.37109,-0.69532 0.14844,-0.22265 0.31641,-0.42578 0.50391,-0.61328 0.1875,-0.1875 0.39062,-0.35547 0.60937,-0.5 0.22266,-0.14843 0.45313,-0.27343 0.69922,-0.375 0.24219,-0.10156 0.4961,-0.17578 0.75391,-0.22656 0.26172,-0.0547 0.52344,-0.0781 0.78906,-0.0781 0.26563,0 0.52734,0.0234 0.78516,0.0781 0.26172,0.0508 0.51172,0.125 0.75781,0.22656 0.24219,0.10157 0.47656,0.22657 0.69531,0.375 0.22266,0.14453 0.42578,0.3125 0.61328,0.5 0.1875,0.1875 0.35547,0.39063 0.5,0.61328 0.14844,0.21875 0.27344,0.44922 0.375,0.69532 0.10157,0.24609 0.17578,0.49609 0.22657,0.75781 0.0547,0.25781 0.0781,0.51953 0.0781,0.78516 z m 0,0"
     fill-opacity="1"
     fill-rule="nonzero"
     id="path12" />
  <path
     fill="#a87b05"
     d="m 644.58593,25.644534 c 0,0.3125 -0.0312,0.62109 -0.0898,0.92578 -0.0625,0.30468 -0.15234,0.60156 -0.26953,0.89062 -0.12109,0.28906 -0.26563,0.5625 -0.4375,0.82031 -0.17578,0.25782 -0.37109,0.5 -0.59375,0.71875 -0.21875,0.22266 -0.45703,0.41797 -0.71875,0.58985 -0.25781,0.17187 -0.53125,0.32031 -0.82031,0.4375 -0.28516,0.12109 -0.58203,0.21094 -0.88672,0.27344 -0.3086,0.0586 -0.61719,0.0898 -0.92578,0.0898 -0.3125,0 -0.6211,-0.0312 -0.92578,-0.0898 -0.3086,-0.0625 -0.60547,-0.15235 -0.89063,-0.27344 -0.28906,-0.11719 -0.5625,-0.26563 -0.82031,-0.4375 -0.26172,-0.17188 -0.5,-0.36719 -0.71875,-0.58985 -0.22266,-0.21875 -0.41797,-0.46093 -0.58985,-0.71875 -0.17578,-0.25781 -0.32031,-0.53125 -0.4414,-0.82031 -0.11719,-0.28906 -0.20703,-0.58594 -0.26953,-0.89062 -0.0586,-0.30469 -0.0899,-0.61328 -0.0899,-0.92578 0,-0.3125 0.0312,-0.6211 0.0899,-0.92579 0.0625,-0.30468 0.15234,-0.60156 0.26953,-0.89062 0.12109,-0.28516 0.26562,-0.55859 0.4414,-0.82031 0.17188,-0.25782 0.36719,-0.4961 0.58985,-0.71875 0.21875,-0.21875 0.45703,-0.41407 0.71875,-0.58985 0.25781,-0.17187 0.53125,-0.3164 0.82031,-0.4375 0.28516,-0.11718 0.58203,-0.20703 0.89063,-0.26953 0.30468,-0.0625 0.61328,-0.0898 0.92578,-0.0898 0.30859,0 0.61718,0.0273 0.92578,0.0898 0.30469,0.0625 0.60156,0.15235 0.88672,0.26953 0.28906,0.1211 0.5625,0.26563 0.82031,0.4375 0.26172,0.17578 0.5,0.3711 0.71875,0.58985 0.22266,0.22265 0.41797,0.46093 0.59375,0.71875 0.17187,0.26172 0.31641,0.53515 0.4375,0.82031 0.11719,0.28906 0.20703,0.58594 0.26953,0.89062 0.0586,0.30469 0.0898,0.61329 0.0898,0.92579 z m 0,0"
     fill-opacity="1"
     fill-rule="nonzero"
     id="path13" />
</svg>
