<?xml version="1.0" encoding="UTF-8" standalone="no"?>
<svg
   width="901"
   zoomAndPan="magnify"
   viewBox="0 0 675.75 105.33593"
   height="140.44791"
   preserveAspectRatio="xMidYMid"
   version="1.0"
   id="svg4"
   sodipodi:docname="2.svg"
   xmlns:inkscape="http://www.inkscape.org/namespaces/inkscape"
   xmlns:sodipodi="http://sodipodi.sourceforge.net/DTD/sodipodi-0.dtd"
   xmlns="http://www.w3.org/2000/svg"
   xmlns:svg="http://www.w3.org/2000/svg">
  <sodipodi:namedview
     id="namedview4"
     pagecolor="#ffffff"
     bordercolor="#000000"
     borderopacity="0.25"
     inkscape:showpageshadow="2"
     inkscape:pageopacity="0.0"
     inkscape:pagecheckerboard="0"
     inkscape:deskcolor="#d1d1d1" />
  <defs
     id="defs2">
    <clipPath
       id="e414377733">
      <path
         d="M 46.097656,331.16406 H 721.84766 V 423 H 46.097656 Z m 0,0"
         clip-rule="nonzero"
         id="path1" />
    </clipPath>
    <clipPath
       id="3a1d3a9155">
      <path
         d="m 58,349 h 652 v 87.91406 H 58 Z m 0,0"
         clip-rule="nonzero"
         id="path2" />
    </clipPath>
  </defs>
  <g
     clip-path="url(#e414377733)"
     id="g3"
     transform="translate(-46.097656,-331.32031)">
    <path
       fill="#a87b05"
       d="m 420.59375,383.40234 c 1.40234,-0.23047 2.78516,-0.40234 4.125,-0.51562 -1.91406,4.52344 -4.60547,9.22656 -8.39453,13.41406 -6.90235,7.62109 -15.85547,11.79688 -22.51563,14.01172 -2.92578,-0.14453 -5.34375,-0.46875 -6.95312,-0.73828 0.18359,-0.34375 0.39844,-0.74219 0.63672,-1.16016 5.84765,-1.39844 17.84375,-5.23828 26.21484,-14.48437 2.95703,-3.26953 5.1875,-6.91407 6.88672,-10.52735 z m -65.80859,10.52735 c -2.95313,-3.26563 -5.1836,-6.91016 -6.88282,-10.52735 -1.40234,-0.23047 -2.78906,-0.40234 -4.13281,-0.51562 1.91406,4.52344 4.60547,9.22656 8.39844,13.41406 6.90234,7.62109 15.85547,11.79688 22.51562,14.01172 2.92188,-0.14453 5.34375,-0.46875 6.95313,-0.73828 -0.1836,-0.34766 -0.40235,-0.74219 -0.63672,-1.16016 -5.85156,-1.39844 -17.84375,-5.23828 -26.21484,-14.48437 z m 72.61718,-32.7461 c -0.79297,0.10547 -19.57031,2.75782 -31.84375,16.31641 -6.36328,7.03125 -9.63281,15.50391 -11.3125,22.14844 -1.67968,-6.64453 -4.94922,-15.11719 -11.3125,-22.14844 -12.27343,-13.55859 -31.05078,-16.21094 -31.84375,-16.31641 -0.51953,-0.0664 -1.03515,0.0937 -1.41797,0.44141 -0.38671,0.34766 -0.59765,0.85156 -0.58203,1.36719 0.0156,0.48828 0.3125,7.64453 3.27735,16.22265 1.26953,0.0742 2.57422,0.1836 3.91406,0.35157 -2.26953,-6.03125 -3.14453,-11.54297 -3.47266,-14.47657 5.17969,1.10157 18.44922,4.77344 27.50782,14.78125 6.2539,6.91016 9.30468,15.53907 10.78515,21.94922 3.07422,4.51563 4.625,8.01953 4.76172,8.33985 0.0977,0.22656 0.14063,0.46093 0.14453,0.69921 0,-0.0195 0.004,-0.0351 0.004,-0.0547 -0.0117,-0.26172 -0.10156,-2.47657 -0.64844,-5.8086 0.58203,-0.97265 1.25391,-2.03906 2.02734,-3.17578 1.48047,-6.41015 4.52735,-15.03906 10.78516,-21.94922 9.03906,-9.98828 22.32422,-13.67187 27.51172,-14.78125 -0.32422,2.9336 -1.19922,8.44141 -3.46875,14.47657 1.33594,-0.16797 2.64062,-0.27735 3.90625,-0.35157 2.96094,-8.57812 3.25781,-15.73437 3.27344,-16.22265 0.0195,-0.51563 -0.19141,-1.01563 -0.57813,-1.36719 -0.38672,-0.34766 -0.89844,-0.50781 -1.41797,-0.44141 z m -41.97265,50.99219 c 0.0351,-0.0312 0.0586,-0.0703 0.0898,-0.10547 -0.0391,0.043 -0.0742,0.0859 -0.11719,0.1211 0.008,-0.008 0.0195,-0.008 0.0274,-0.0156 z m -2.83594,-53.16797 c -1.02344,-2.71875 -6.11719,-16.46094 -6.11719,-19.92187 0,-4.28125 3.48438,-7.76563 7.76953,-7.76563 4.28125,0 7.76563,3.48438 7.76563,7.76563 0,3.46093 -5.09375,17.20312 -6.11328,19.92187 -0.25782,0.6875 -0.91797,1.14453 -1.65235,1.14453 -0.73828,0 -1.39453,-0.45312 -1.65234,-1.14453 z m -2.58594,-19.92187 c 0,1.69922 2.19141,8.40625 4.23828,14.15625 2.04297,-5.75 4.23828,-12.45703 4.23828,-14.15625 0,-2.33594 -1.90234,-4.23828 -4.23828,-4.23828 -2.33593,0 -4.23828,1.90234 -4.23828,4.23828 z m 103.71875,64.89453 c -3.67187,-3.67188 -8.55469,-5.69531 -13.74609,-5.69531 h -14.17578 c -0.97657,0 -1.76563,0.79296 -1.76563,1.76562 0,0.97656 0.78906,1.76563 1.76563,1.76563 h 14.17578 c 4.25,0 8.24609,1.65625 11.25,4.66015 l 2.32422,2.32422 h 4.99218 z m 173.57422,10.67578 c -3.00391,3.00391 -7,4.65625 -11.25,4.65625 H 505.65234 c -4.25,0 -8.24609,-1.65234 -11.25,-4.65625 l -2.32422,-2.32422 h -4.99218 l 4.82031,4.82031 c 3.67187,3.67188 8.55078,5.69141 13.74609,5.69141 h 140.39844 c 5.19141,0 10.07422,-2.01953 13.74609,-5.69141 l 4.82032,-4.82031 H 659.625 Z m 35.92969,-16.05469 h -11.82422 c -5.19141,0 -10.07422,2.01953 -13.74609,5.69141 l -4.50391,4.50781 h 4.99219 l 2.00781,-2.01172 c 3.00391,-3.0039 7,-4.65625 11.25,-4.65625 h 11.82422 c 0.97265,0 1.76172,-0.79297 1.76172,-1.76562 0,-0.97657 -0.78907,-1.76563 -1.76172,-1.76563 z m -142.91797,-8.8789 c 0,-3.85157 2.87891,-7.13282 6.69531,-7.63282 l 2.15625,-0.28125 c 7.38672,-0.96875 13.86328,-5.16015 17.77344,-11.5039 0.64062,-1.04297 2.36328,-1.04297 3.00781,0 3.90625,6.34375 10.38281,10.53515 17.76953,11.5039 l 2.15625,0.28125 c 3.82032,0.5 6.69922,3.78125 6.69922,7.63282 0,2.65234 -1.33984,5.08593 -3.58594,6.50781 l -10.65625,6.72656 c -0.28515,0.17969 -0.61328,0.27344 -0.9414,0.27344 -0.30078,0 -0.60156,-0.0781 -0.8711,-0.23047 -0.5664,-0.32031 -0.91015,-0.92969 -0.89453,-1.58203 0.0508,-1.95313 -0.67187,-3.80078 -2.03515,-5.19922 -1.36719,-1.39844 -3.19141,-2.16797 -5.14844,-2.16797 h -7.99219 c -3.96484,0 -7.1875,3.22266 -7.1875,7.18359 v 0.23047 c 0,0.64063 -0.34765,1.23438 -0.91406,1.54688 -0.5625,0.30859 -1.25,0.28906 -1.79297,-0.0547 l -10.65234,-6.72656 c -2.2461,-1.42188 -3.58594,-3.85547 -3.58594,-6.50781 z m 3.52734,0 c 0,1.4375 0.72657,2.7539 1.94532,3.51953 l 8.30078,5.24609 c 1.21484,-4.58203 5.39843,-7.96875 10.35937,-7.96875 h 7.99219 c 2.91406,0 5.64062,1.14844 7.67578,3.23438 1.30859,1.34375 2.22266,2.96875 2.6875,4.72656 l 8.29688,-5.23828 c 1.21484,-0.76563 1.9414,-2.08203 1.9414,-3.51953 0,-2.08594 -1.55859,-3.86329 -3.625,-4.13282 l -2.15625,-0.28125 c -7.55859,-0.98828 -14.28515,-4.93359 -18.8164,-10.94922 -4.53516,6.01563 -11.26172,9.96094 -18.82032,10.94922 l -2.15625,0.28125 c -2.0664,0.26953 -3.625,2.04688 -3.625,4.13282 z m 168.03125,15.58593 c 0,2.64063 -2.14843,4.78516 -4.78906,4.78516 -2.63672,0 -4.78516,-2.14453 -4.78516,-4.78516 0,-2.64062 2.14844,-4.78515 4.78516,-4.78515 2.64063,0 4.78906,2.14453 4.78906,4.78515 z m -3.53125,0 c 0,-0.6914 -0.5625,-1.2539 -1.25781,-1.2539 -0.69141,0 -1.25391,0.5625 -1.25391,1.2539 0,0.69141 0.5625,1.25782 1.25391,1.25782 0.69531,0 1.25781,-0.5625 1.25781,-1.25782 z M 613.25,389.92187 c 0,-2.64062 2.14844,-4.78906 4.78906,-4.78906 2.63672,0 4.78516,2.14844 4.78516,4.78906 0,2.63672 -2.14844,4.78516 -4.78516,4.78516 -2.64062,0 -4.78906,-2.14844 -4.78906,-4.78516 z m 3.53125,0 c 0,0.69141 0.5625,1.25391 1.25781,1.25391 0.69141,0 1.25391,-0.5625 1.25391,-1.25391 0,-0.69531 -0.5625,-1.25781 -1.25391,-1.25781 -0.69531,0 -1.25781,0.5625 -1.25781,1.25781 z m -82.66797,0 c 0,-2.64062 2.14453,-4.78906 4.78516,-4.78906 2.63672,0 4.78515,2.14844 4.78515,4.78906 0,2.63672 -2.14843,4.78516 -4.78515,4.78516 -2.64063,0 -4.78516,-2.14844 -4.78516,-4.78516 z m 3.53125,0 c 0,0.69141 0.5625,1.25391 1.25391,1.25391 0.6914,0 1.2539,-0.5625 1.2539,-1.25391 0,-0.69531 -0.5625,-1.25781 -1.2539,-1.25781 -0.69141,0 -1.25391,0.5625 -1.25391,1.25781 z m -313.33594,0 c 0,-2.64062 2.14844,-4.78906 4.78516,-4.78906 2.64062,0 4.78906,2.14844 4.78906,4.78906 0,2.63672 -2.14844,4.78516 -4.78906,4.78516 -2.63672,0 -4.78516,-2.14844 -4.78516,-4.78516 z m 3.53125,0 c 0,0.69141 0.5625,1.25391 1.25391,1.25391 0.69531,0 1.25781,-0.5625 1.25781,-1.25391 0,-0.69531 -0.5625,-1.25781 -1.25781,-1.25781 -0.69141,0 -1.25391,0.5625 -1.25391,1.25781 z m -82.67187,0 c 0,-2.64062 2.14844,-4.78906 4.78906,-4.78906 2.63672,0 4.78516,2.14844 4.78516,4.78906 0,2.63672 -2.14844,4.78516 -4.78516,4.78516 -2.64062,0 -4.78906,-2.14844 -4.78906,-4.78516 z m 3.53125,0 c 0,0.69141 0.5625,1.25391 1.25781,1.25391 0.69141,0 1.25391,-0.5625 1.25391,-1.25391 0,-0.69531 -0.5625,-1.25781 -1.25391,-1.25781 -0.69531,0 -1.25781,0.5625 -1.25781,1.25781 z m 124.86719,24.73438 c -3.00782,3.00391 -7.00391,4.65625 -11.25391,4.65625 H 121.91406 c -4.24609,0 -8.24218,-1.65234 -11.25,-4.65625 l -2.32422,-2.32422 h -4.99218 l 4.82031,4.82031 c 3.67187,3.67188 8.55469,5.69141 13.74609,5.69141 H 262.3125 c 5.19531,0 10.07812,-2.01953 13.75,-5.69141 l 4.82031,-4.82031 h -4.99219 z M 100.30469,404.29297 C 96.632812,400.62109 91.75,398.60156 86.558594,398.60156 H 74.738281 c -0.976562,0 -1.765625,0.78906 -1.765625,1.76563 0,0.97265 0.789063,1.76562 1.765625,1.76562 h 11.820313 c 4.25,0 8.246094,1.65235 11.25,4.65625 l 2.007812,2.01172 h 4.996094 z m 211.85547,-6.00781 h -14.17579 c -5.1914,0 -10.07421,2.02343 -13.74609,5.69531 l -4.82031,4.82031 h 4.99219 l 2.32421,-2.32422 c 3.00391,-3.0039 7,-4.66015 11.25,-4.66015 h 14.17579 c 0.97656,0 1.76562,-0.78907 1.76562,-1.76563 0,-0.97266 -0.78906,-1.76562 -1.76562,-1.76562 z m -150.76172,-8.5625 c 0,-3.85157 2.8789,-7.13282 6.69531,-7.63282 l 2.15625,-0.28125 c 7.38672,-0.96875 13.86328,-5.16015 17.77344,-11.5039 0.64062,-1.04297 2.36328,-1.04297 3.0039,0 3.91016,6.34375 10.39063,10.53515 17.77344,11.5039 l 2.15625,0.28125 c 3.81641,0.5 6.69922,3.78125 6.69922,7.63282 0,2.65625 -1.34375,5.08984 -3.58984,6.50781 l -10.65235,6.72656 c -0.28906,0.17969 -0.61328,0.27344 -0.9414,0.27344 -0.29297,0 -0.58594,-0.0742 -0.85157,-0.21875 -0.5664,-0.3125 -0.91406,-0.90625 -0.91406,-1.54688 v -0.23047 c 0,-3.96093 -3.22266,-7.18359 -7.1875,-7.18359 h -7.99219 c -1.95312,0 -3.78125,0.76953 -5.14453,2.16797 -1.36328,1.39844 -2.08984,3.24609 -2.03906,5.19922 0.0156,0.65234 -0.32422,1.26172 -0.89453,1.58203 -0.5625,0.31641 -1.26172,0.30469 -1.8125,-0.043 l -10.65235,-6.72656 c -2.24609,-1.41797 -3.58593,-3.85156 -3.58593,-6.50781 z m 3.53125,0 c 0,1.4375 0.72265,2.7539 1.9414,3.51953 l 8.29297,5.23828 c 0.46485,-1.76172 1.37891,-3.38281 2.6875,-4.72656 2.03516,-2.08594 4.76172,-3.23438 7.67578,-3.23438 h 7.99219 c 4.96094,0 9.14453,3.38672 10.35938,7.96875 l 8.30468,-5.24609 c 1.21485,-0.76563 1.94141,-2.08203 1.94141,-3.51953 0,-2.08594 -1.55859,-3.86329 -3.625,-4.13282 l -2.15625,-0.28125 c -7.55859,-0.98828 -14.28516,-4.93359 -18.81641,-10.94922 -4.53515,6.01563 -11.26172,9.96094 -18.82031,10.94922 l -2.15234,0.28125 c -2.06641,0.26953 -3.625,2.04688 -3.625,4.13282 z M 55.667969,405.30859 c 0,2.64063 -2.144531,4.78516 -4.785157,4.78516 -2.640624,0 -4.785156,-2.14453 -4.785156,-4.78516 0,-2.64062 2.144532,-4.78515 4.785156,-4.78515 2.640626,0 4.785157,2.14453 4.785157,4.78515 z m -3.53125,0 c 0,-0.6914 -0.5625,-1.2539 -1.253907,-1.2539 -0.691406,0 -1.253906,0.5625 -1.253906,1.2539 0,0.69141 0.5625,1.25782 1.253906,1.25782 0.691407,0 1.253907,-0.5625 1.253907,-1.25782 z m 0,0"
       fill-opacity="1"
       fill-rule="nonzero"
       id="path3" />
  </g>
  <g
     clip-path="url(#3a1d3a9155)"
     id="g4"
     transform="translate(-46.097656,-331.32031)">
    <path
       fill="#ba9056"
       d="m 443.78125,381.42578 c -0.23047,-0.46484 -0.65234,-0.80469 -1.15625,-0.92969 -0.46875,-0.11718 -7.4375,-1.78515 -16.5,-1.28125 -1.26563,0.0742 -2.57031,0.1836 -3.90625,0.35157 -4.875,0.60546 -10.13672,1.91015 -15.20313,4.41796 -9.21875,4.55469 -15.67968,12.03125 -19.625,17.83594 -0.77343,1.13672 -1.44531,2.20313 -2.02734,3.17578 0.54688,3.33203 0.63672,5.54688 0.64844,5.8086 0,0.0195 -0.004,0.0351 -0.004,0.0547 -0.004,-0.23828 -0.0469,-0.47656 -0.14453,-0.69921 -0.13672,-0.32032 -1.6875,-3.82422 -4.76172,-8.33985 -3.94531,-5.80469 -10.40625,-13.28125 -19.625,-17.83594 -5.0664,-2.5039 -10.32031,-3.8125 -15.19531,-4.41796 -1.33984,-0.16797 -2.64844,-0.27735 -3.91406,-0.35157 -9.06641,-0.50781 -16.03125,1.16407 -16.5,1.28125 -0.50391,0.125 -0.92969,0.46485 -1.16016,0.92969 -0.23047,0.46484 -0.24219,1.00781 -0.0352,1.48828 0.31641,0.73047 7.99219,18.07031 24.38672,26.17578 7.75782,3.83594 15.97266,4.86719 22.5586,4.86719 6.35547,0 11.18359,-0.95703 12.6289,-1.28125 1.44141,0.32422 6.27344,1.28125 12.62891,1.28125 6.58594,0 14.80078,-1.03125 22.55469,-4.86719 16.39453,-8.10547 24.07031,-25.44531 24.39062,-26.17578 0.20703,-0.48047 0.19141,-1.02344 -0.0391,-1.48828 z m -69.09766,28.88672 c -6.57031,0.32422 -15.70312,-0.25391 -24.05859,-4.38672 -12.07031,-5.96875 -19.24609,-17.73828 -21.72656,-22.42578 2.91015,-0.48828 8.45312,-1.14844 14.87109,-0.61328 1.34766,0.11328 2.73047,0.28515 4.13281,0.51562 3.94532,0.64453 8.0625,1.79297 12.00782,3.74219 11.17968,5.53125 18.14843,16.02344 21.08984,21.26953 0.23437,0.41797 0.45312,0.8125 0.63672,1.16016 -1.60938,0.26953 -4.03125,0.59375 -6.95313,0.73828 z m 10.7461,1.86328 c -0.008,0.008 -0.0195,0.008 -0.0274,0.0156 0.043,-0.0352 0.0781,-0.0781 0.11719,-0.1211 -0.0312,0.0352 -0.0547,0.0742 -0.0898,0.10547 z m 32.4375,-6.25 c -8.35547,4.13281 -17.48828,4.71094 -24.0586,4.38672 -2.92578,-0.14453 -5.34375,-0.46875 -6.95312,-0.73828 0.18359,-0.34766 0.39844,-0.74219 0.63672,-1.16016 2.9414,-5.24609 9.91015,-15.73828 21.08984,-21.26562 3.94531,-1.95313 8.06641,-3.10157 12.01172,-3.7461 1.40234,-0.23047 2.78516,-0.40234 4.125,-0.51562 6.42187,-0.53516 11.96094,0.125 14.875,0.61328 -2.48438,4.6875 -9.65625,16.45703 -21.72656,22.42578 z M 387.71484,373 c 0.23828,0 0.48047,-0.0508 0.71094,-0.15234 2.65625,-1.17188 16.03906,-7.13672 18.51563,-9.5586 1.48437,-1.44922 2.3125,-3.39062 2.33593,-5.46875 0.0234,-2.07422 -0.76172,-4.03125 -2.21093,-5.51562 -3,-3.0625 -7.92579,-3.11719 -10.98829,-0.1211 -2.47265,2.41797 -8.73437,15.67188 -9.96484,18.30078 -0.3125,0.66797 -0.17578,1.45704 0.33594,1.98438 0.33984,0.34766 0.79687,0.53125 1.26562,0.53125 z m 10.83594,-18.29297 c 0.79688,-0.78125 1.84375,-1.20703 2.95703,-1.20703 0.0195,0 0.0352,0 0.0508,0 1.13282,0.0117 2.19141,0.46484 2.98047,1.27344 0.79297,0.80859 1.22266,1.8789 1.20703,3.00781 -0.0117,1.13281 -0.46484,2.19141 -1.27343,2.98437 -1.21485,1.1875 -7.53907,4.3086 -13.07813,6.86719 2.67578,-5.48047 5.94141,-11.73828 7.15625,-12.92578 z m -18.48437,18.14063 c 0.23046,0.10156 0.47265,0.15234 0.71093,0.15234 0.46485,0 0.92578,-0.18359 1.26172,-0.53125 0.51563,-0.52734 0.65235,-1.31641 0.33985,-1.98438 -1.23047,-2.6289 -7.49219,-15.88281 -9.96875,-18.30078 -1.48047,-1.45312 -3.47266,-2.26172 -5.51563,-2.21484 -2.07422,0.0234 -4.01562,0.85156 -5.46875,2.33594 -1.44922,1.48437 -2.23437,3.4414 -2.21484,5.51562 0.0234,2.07813 0.85547,4.01563 2.33593,5.46875 2.47657,2.42188 15.86329,8.38672 18.51954,9.5586 z m -16.11719,-18.07422 c 0.79297,-0.8086 1.85156,-1.26172 2.98437,-1.27344 0.0156,0 0.0312,0 0.0469,0 1.11328,0 2.16406,0.42578 2.96094,1.20703 1.21484,1.1875 4.47656,7.44531 7.15625,12.92578 -5.53907,-2.55469 -11.86719,-5.67969 -13.08204,-6.86719 -0.80859,-0.79296 -1.25781,-1.85156 -1.27343,-2.98437 -0.0117,-1.12891 0.41797,-2.19922 1.20703,-3.00781 z m 345.48437,50.53515 c 0,3.8711 -3.15234,7.02344 -7.02343,7.02344 H 447.45703 c -3.87109,0 -7.02344,-3.15234 -7.02344,-7.02344 0,-3.87109 3.15235,-7.02343 7.02344,-7.02343 h 0.65625 c 0.97656,0 1.76563,0.79296 1.76563,1.76562 0,0.97656 -0.78907,1.76563 -1.76563,1.76563 h -0.65625 c -1.92578,0 -3.49219,1.5664 -3.49219,3.49218 0,1.92578 1.56641,3.49219 3.49219,3.49219 h 254.95313 c 1.92578,0 3.49218,-1.56641 3.49218,-3.49219 0,-1.92578 -1.5664,-3.49218 -3.49218,-3.49218 h -1.64844 c -0.97266,0 -1.76563,-0.78907 -1.76563,-1.76563 0,-0.97266 0.79297,-1.76562 1.76563,-1.76562 h 1.64844 c 3.87109,0 7.02343,3.15234 7.02343,7.02343 z m -103.80468,-5.25781 c 0,-0.97266 0.78906,-1.76562 1.76562,-1.76562 h 55.55078 c 0.97266,0 1.76563,0.79296 1.76563,1.76562 0,0.97656 -0.79297,1.76563 -1.76563,1.76563 h -55.55078 c -0.97656,0 -1.76562,-0.78907 -1.76562,-1.76563 z m -115.34375,0 c 0,-0.97266 0.79296,-1.76562 1.76562,-1.76562 h 55.55469 c 0.97265,0 1.76562,0.79296 1.76562,1.76562 0,0.97656 -0.79297,1.76563 -1.76562,1.76563 h -55.55469 c -0.97266,0 -1.76562,-0.78907 -1.76562,-1.76563 z m -162.75391,5.25781 c 0,3.8711 -3.15234,7.02344 -7.02344,7.02344 H 65.554688 c -3.871094,0 -7.023438,-3.15234 -7.023438,-7.02344 0,-3.87109 3.152344,-7.02343 7.023438,-7.02343 h 1.648437 c 0.976563,0 1.765625,0.79296 1.765625,1.76562 0,0.97656 -0.789062,1.76563 -1.765625,1.76563 h -1.648437 c -1.925782,0 -3.492188,1.5664 -3.492188,3.49218 0,1.92578 1.566406,3.49219 3.492188,3.49219 H 320.50781 c 1.92578,0 3.49219,-1.56641 3.49219,-3.49219 0,-1.92578 -1.56641,-3.49218 -3.49219,-3.49218 h -0.65625 c -0.97656,0 -1.76562,-0.78907 -1.76562,-1.76563 0,-0.97266 0.78906,-1.76562 1.76562,-1.76562 h 0.65625 c 3.8711,0 7.02344,3.15234 7.02344,7.02343 z m -224.27344,-5.25781 c 0,-0.97266 0.78907,-1.76562 1.76172,-1.76562 h 55.55469 c 0.97265,0 1.76562,0.79296 1.76562,1.76562 0,0.97656 -0.79297,1.76563 -1.76562,1.76563 h -55.55469 c -0.97265,0 -1.76172,-0.78907 -1.76172,-1.76563 z m 115.33985,0 c 0,-0.97266 0.78906,-1.76562 1.76562,-1.76562 h 55.55078 c 0.97266,0 1.76563,0.79296 1.76563,1.76562 0,0.97656 -0.79297,1.76563 -1.76563,1.76563 h -55.55078 c -0.97656,0 -1.76562,-0.78907 -1.76562,-1.76563 z m 167.41406,19.77344 v 15.0664 c 0,0.97266 -0.79297,1.76563 -1.76563,1.76563 -0.97656,0 -1.76562,-0.79297 -1.76562,-1.76563 v -15.0664 c 0,-0.97656 0.78906,-1.76563 1.76562,-1.76563 0.97266,0 1.76563,0.78907 1.76563,1.76563 z m 12.90234,4.16406 c 0.6875,0.69141 0.6875,1.80859 0,2.49609 -0.34765,0.34766 -0.79687,0.51954 -1.25,0.51954 -0.44922,0 -0.90234,-0.17188 -1.24609,-0.51954 l -5.41406,-5.41015 c -0.69141,-0.69141 -0.69141,-1.8086 0,-2.4961 0.6875,-0.6914 1.80468,-0.6914 2.49609,0 z m -21.26953,-5.41016 c 0.69141,0.6875 0.69141,1.80469 0,2.4961 l -5.6875,5.6875 c -0.34375,0.34375 -0.79687,0.51562 -1.25,0.51562 -0.44922,0 -0.90234,-0.17187 -1.24609,-0.51562 -0.69141,-0.6875 -0.69141,-1.80469 0,-2.4961 l 5.6875,-5.6875 c 0.6914,-0.6914 1.80859,-0.6914 2.49609,0 z m 0,0"
       fill-opacity="1"
       fill-rule="nonzero"
       id="path4" />
  </g>
</svg>
