<?xml version="1.0" encoding="UTF-8" standalone="no"?>
<svg
   width="818.2403"
   zoomAndPan="magnify"
   viewBox="0 0 613.68022 139.89831"
   height="186.53108"
   preserveAspectRatio="xMidYMid"
   version="1.0"
   id="svg2"
   sodipodi:docname="c.svg"
   xmlns:inkscape="http://www.inkscape.org/namespaces/inkscape"
   xmlns:sodipodi="http://sodipodi.sourceforge.net/DTD/sodipodi-0.dtd"
   xmlns="http://www.w3.org/2000/svg"
   xmlns:svg="http://www.w3.org/2000/svg">
  <sodipodi:namedview
     id="namedview2"
     pagecolor="#ffffff"
     bordercolor="#000000"
     borderopacity="0.25"
     inkscape:showpageshadow="2"
     inkscape:pageopacity="0.0"
     inkscape:pagecheckerboard="0"
     inkscape:deskcolor="#d1d1d1" />
  <defs
     id="defs1">
    <clipPath
       id="9966516a70">
      <path
         d="M 76.800781,314 H 691 V 454.71094 H 76.800781 Z m 0,0"
         clip-rule="nonzero"
         id="path1" />
    </clipPath>
  </defs>
  <g
     clip-path="url(#9966516a70)"
     id="g2"
     transform="translate(-76.973884,-314.14093)">
    <path
       fill="#a87b05"
       d="m 689.19922,408.71875 c -33.5,-4.32813 -65.79688,7.62891 -97.16406,17.79687 -32.23047,10.44532 -65.00782,18.03907 -99.08985,16.62891 -30.4414,-1.23437 -60.40234,-9.58203 -85.82812,-26.625 9.86328,-9.20703 18.86328,-19.44531 26.73047,-30.30469 10.03515,-13.84765 17.90234,-29.375 21.85156,-46.07422 1.54687,-6.45703 3.16406,-14.42968 -0.48047,-20.51171 -3.88281,-6.42579 -11.54297,-6.5625 -17.72656,-3.71094 -7.42188,3.4375 -13.53907,9.96484 -18.96875,15.875 -5.73438,6.2539 -10.92578,13.08984 -15.25391,20.40625 -1.68359,2.85156 -3.19531,5.73828 -4.63672,8.69531 -3.1289,-13.23047 -10.41015,-25.08203 -21.33594,-33.36328 -5.46484,-4.15625 -12.64453,-8.48438 -19.65234,-5.46094 -4.84766,2.09375 -7.39062,7.14453 -8.24609,12.125 -2.23438,12.71485 3.64062,26.42188 9.41406,37.45313 6.66406,12.78125 15.63281,24.32422 26.04297,34.2539 4.12109,3.94922 8.44922,7.5586 12.88281,10.92578 -1.92578,1.61329 -3.88281,3.19532 -5.875,4.74219 -13.50391,10.41016 -28.72266,18.6211 -45.35156,22.71094 -17.31641,4.22656 -35.45703,4.08594 -53.01563,1.68359 -36.35156,-5.01562 -70.39843,-19.20703 -105.85547,-28.0039 -36.00781,-8.9336 -76.24218,-13.8125 -110.531245,3.8164 -0.308594,0.17188 -0.03516,0.58203 0.273437,0.44532 8.417969,-3.60938 17.285157,-6.32032 26.320318,-7.90235 9.13671,-1.61328 18.48437,-1.61328 27.72656,-1.30469 18.65625,0.65235 37.0039,4.57032 54.90234,9.61719 36.66016,10.37891 72.05078,25.5625 110.15234,30.13281 18.65625,2.23438 37.82813,1.78907 55.96875,-3.43359 17.04297,-4.87891 32.29688,-13.91797 45.90235,-25.1875 1.48047,-1.23437 2.92187,-2.47266 4.36328,-3.74219 48.55078,33.39453 113.10937,34.28907 168.97266,18.27735 38.55078,-11.02735 76.27734,-30.67969 117.50781,-27.03907 1.99219,0.27344 1.88672,-2.67968 0,-2.92187 z M 355.99219,353.91797 c -2.26563,-6.14844 -3.74219,-12.67578 -2.3711,-19.23828 1.61719,-7.62891 7.45703,-11.30469 14.91407,-7.73047 14.42968,6.97265 25.28515,22.60547 28.41406,38.0664 0.20703,0.9961 1.82031,1.23829 2.26562,0.3086 C 406.5,350.17187 417.42578,336.29297 430,325.23047 c 5.08594,-4.46875 15.94141,-12.23047 21.61328,-4.36328 4.42969,6.14843 1.03125,16.17968 -0.89453,22.64062 -4.67188,15.63281 -13.36719,30.0625 -23.43359,42.84375 -7.5586,9.55078 -16.00782,18.58985 -25.1836,26.73047 -20.4414,-14.98047 -37.3125,-35.21484 -46.10937,-59.16406 z m 0,0"
       fill-opacity="1"
       fill-rule="nonzero"
       id="path2" />
  </g>
</svg>
