<?xml version="1.0" encoding="UTF-8" standalone="no"?>
<svg
   width="817.98438"
   zoomAndPan="magnify"
   viewBox="0 0 613.48828 74.133064"
   height="98.844086"
   preserveAspectRatio="xMidYMid"
   version="1.0"
   id="svg4"
   sodipodi:docname="7.svg"
   xmlns:inkscape="http://www.inkscape.org/namespaces/inkscape"
   xmlns:sodipodi="http://sodipodi.sourceforge.net/DTD/sodipodi-0.dtd"
   xmlns="http://www.w3.org/2000/svg"
   xmlns:svg="http://www.w3.org/2000/svg">
  <sodipodi:namedview
     id="namedview4"
     pagecolor="#ffffff"
     bordercolor="#000000"
     borderopacity="0.25"
     inkscape:showpageshadow="2"
     inkscape:pageopacity="0.0"
     inkscape:pagecheckerboard="0"
     inkscape:deskcolor="#d1d1d1" />
  <defs
     id="defs2">
    <clipPath
       id="b6124e5069">
      <path
         d="M 77,346.91797 H 394 V 420 H 77 Z m 0,0"
         clip-rule="nonzero"
         id="path1" />
    </clipPath>
    <clipPath
       id="4e420d0541">
      <path
         d="m 375,346.91797 h 316 v 74.15625 H 375 Z m 0,0"
         clip-rule="nonzero"
         id="path2" />
    </clipPath>
  </defs>
  <g
     clip-path="url(#b6124e5069)"
     id="g3"
     transform="translate(-77.253906,-346.91797)">
    <path
       fill="#a87b05"
       d="m 77.253906,374.89062 c 1.121094,1.22657 2.335938,2.35547 3.640625,3.38672 1.3125,1.02735 2.695313,1.95313 4.148438,2.76953 2.941406,1.625 6.042969,2.84766 9.300781,3.66797 3.257812,0.81641 6.55859,1.3086 9.91016,1.48047 3.34765,0.17188 6.6875,0.0937 10.02343,-0.23437 1.66407,-0.15625 3.32422,-0.38282 4.97657,-0.65235 0.83203,-0.125 1.64062,-0.29687 2.46093,-0.45312 0.82032,-0.16016 1.63282,-0.33203 2.44141,-0.50781 3.26172,-0.71094 6.45703,-1.54297 9.64062,-2.41407 6.35547,-1.7539 12.625,-3.64062 18.92579,-5.05859 3.14843,-0.69922 6.30078,-1.29297 9.46093,-1.67969 3.08203,-0.44922 6.17188,-0.54297 9.27344,-0.28125 1.47266,0.13672 2.91797,0.41016 4.33594,0.82813 1.35547,0.40234 2.63281,0.97656 3.83203,1.72656 1.125,0.71875 2.10547,1.60156 2.94141,2.64453 0.83593,1.04688 1.48046,2.19531 1.9375,3.45313 0.41015,1.16406 0.55859,2.36328 0.4414,3.59375 l -0.043,0.42968 -0.0977,0.41407 c -0.0586,0.27343 -0.14063,0.54296 -0.24219,0.80859 l -0.0664,0.19922 c -0.0234,0.0625 -0.0547,0.10937 -0.0781,0.16406 l -0.0703,0.16016 -0.0898,0.15625 c -0.12109,0.21093 -0.25781,0.40625 -0.41406,0.59375 -0.72266,0.84765 -1.61328,1.45703 -2.66406,1.82031 -0.53516,0.19531 -1.08594,0.32422 -1.65235,0.38672 -0.52734,0.0547 -1.05468,0.0351 -1.58203,-0.0547 -0.45312,-0.0742 -0.8789,-0.22266 -1.27734,-0.45312 -0.33594,-0.19532 -0.6211,-0.45313 -0.85547,-0.76954 -0.51563,-0.77343 -0.73828,-1.625 -0.66016,-2.55078 0.0781,-1.10547 0.41407,-2.125 1.01172,-3.05859 0.0742,-0.11719 0.14453,-0.23828 0.22656,-0.34766 l 0.25,-0.32812 0.26172,-0.29297 c 0.0898,-0.10156 0.20703,-0.20703 0.29688,-0.29688 0.4375,-0.42578 0.91406,-0.80468 1.42187,-1.13671 1.125,-0.72657 2.32813,-1.28125 3.60547,-1.67579 0.66797,-0.21484 1.35938,-0.40234 2.07422,-0.55859 0.71484,-0.16016 1.45313,-0.26172 2.17969,-0.38281 2.95312,-0.4375 5.91015,-0.48828 8.875,-0.14844 2.97656,0.32813 5.86719,1.01953 8.67187,2.07422 2.80469,1.04297 5.44922,2.41016 7.92578,4.09766 l 0.90625,0.64453 c 0.3086,0.20703 0.60157,0.42968 0.88672,0.66797 0.56641,0.47265 1.14453,0.93359 1.70313,1.41406 l 1.59765,1.53125 c 0.51172,0.52734 0.98829,1.08984 1.48047,1.6289 0.1211,0.13672 0.25782,0.26563 0.36719,0.41016 l 0.33203,0.4375 0.66797,0.87109 c 0.44922,0.56641 0.86719,1.16016 1.25,1.77735 0.76172,1.18359 1.41016,2.42969 1.94531,3.73047 0.5,1.22265 0.84375,2.48437 1.02735,3.78906 l 0.0547,0.46875 c 0.0195,0.15625 0.0234,0.29687 0.0312,0.46484 0.0312,0.29297 0.0156,0.60938 0.0195,0.91407 0,0.15234 -0.0156,0.29687 -0.0234,0.44921 -0.004,0.15625 0,0.29688 -0.0352,0.44141 l -0.0547,0.40625 c 0,0.13672 -0.0586,0.27344 -0.082,0.41406 -0.23437,1.1211 -0.66797,2.16016 -1.30468,3.11328 -0.0742,0.1211 -0.15625,0.23438 -0.24219,0.34375 l -0.25,0.32813 -0.26953,0.29687 -0.13282,0.14844 -0.14843,0.13672 -0.29297,0.27344 -0.29688,0.23828 -0.14453,0.13672 -0.15625,0.10156 -0.29687,0.20703 c -0.37891,0.23828 -0.78516,0.41797 -1.21875,0.53906 -0.4336,0.1211 -0.875,0.17969 -1.32422,0.17188 -0.44922,-0.004 -0.88672,-0.0781 -1.31641,-0.21094 -0.42969,-0.13281 -0.83203,-0.32812 -1.20312,-0.57812 -0.92188,-0.59375 -1.69141,-1.34375 -2.3086,-2.25 -0.66406,-0.94922 -1.14062,-1.98828 -1.43359,-3.10938 -0.14063,-0.53515 -0.22656,-1.08203 -0.26172,-1.63281 v -0.79297 c 0,-0.12891 0.0234,-0.25391 0.0352,-0.38281 0.008,-0.13281 0.043,-0.29688 0.0625,-0.42969 0.18359,-1.21875 0.54687,-2.38281 1.08593,-3.49219 1.08594,-2.28515 2.875,-4.44531 5.03516,-6.28125 1.09375,-0.9414 2.24219,-1.80859 3.45313,-2.59765 l 0.46093,-0.29688 0.48047,-0.29297 0.96485,-0.5664 c 0.3164,-0.19922 0.64843,-0.36719 0.98046,-0.53907 l 0.99219,-0.51562 c 2.6836,-1.32813 5.48047,-2.37109 8.37891,-3.12109 5.87109,-1.53907 11.80859,-1.85547 17.80859,-0.94532 l 2.19531,0.39453 2.17188,0.51172 c 1.44531,0.40235 2.88281,0.83203 4.30078,1.375 2.88281,1.07813 5.66797,2.3711 8.35938,3.8711 2.73437,1.48047 5.41406,3.17968 8.07421,4.95703 2.66016,1.77344 5.30079,3.65234 8,5.54687 5.36719,3.78125 10.88282,7.67578 16.97266,10.9336 3.07813,1.66797 6.26953,3.09375 9.56641,4.26953 0.41406,0.15234 0.83984,0.29687 1.26172,0.41797 l 1.27343,0.40625 1.28907,0.34765 c 0.42968,0.11719 0.85546,0.23438 1.29687,0.32813 0.87109,0.19531 1.73828,0.39844 2.625,0.53906 0.44141,0.0742 0.88672,0.16797 1.32422,0.22656 l 1.33203,0.17578 c 3.625,0.46875 7.25,0.45313 10.87109,-0.0469 0.45313,-0.0508 0.91016,-0.13672 1.36329,-0.22266 0.45312,-0.0859 0.90625,-0.16797 1.35937,-0.26172 l 1.34766,-0.33984 0.67578,-0.17578 0.66406,-0.21094 1.32813,-0.43359 c 0.4414,-0.16016 0.87109,-0.34375 1.30859,-0.51563 0.88672,-0.32422 1.71094,-0.76172 2.55469,-1.18359 1.70703,-0.875 3.29687,-1.92578 4.76953,-3.15234 1.47265,-1.21094 2.80469,-2.5586 4,-4.04297 2.4375,-2.9961 4.16797,-6.35157 5.19922,-10.07422 0.51562,-1.88672 0.79297,-3.8125 0.83593,-5.76953 0.0469,-2 -0.1875,-3.96875 -0.70703,-5.90235 -0.51562,-1.93359 -1.29687,-3.75781 -2.33984,-5.46875 -1.02344,-1.68359 -2.25,-3.20312 -3.6875,-4.55468 -1.38672,-1.31641 -2.90625,-2.46094 -4.55859,-3.42969 -1.59766,-0.94531 -3.26954,-1.73828 -5.01172,-2.38281 -3.40625,-1.24219 -6.92188,-1.98829 -10.53907,-2.24219 -1.77734,-0.13672 -3.55468,-0.15235 -5.33203,-0.0586 -0.44922,0.0234 -0.89062,0.0469 -1.33593,0.0937 l -0.66797,0.0547 -0.6875,0.082 c -0.91797,0.11328 -1.82032,0.26953 -2.71875,0.46485 -1.8086,0.39453 -3.5625,0.95312 -5.26172,1.67578 -1.76563,0.73828 -3.41406,1.6875 -4.94141,2.83984 -1.66797,1.23828 -3.02734,2.75 -4.08984,4.53125 -0.83203,1.42578 -1.35547,2.96094 -1.57031,4.59766 -0.21485,1.63672 -0.10547,3.2539 0.33203,4.84765 0.28906,1.04297 0.70703,2.02735 1.25,2.96094 1.03906,1.74219 2.36328,3.23047 3.96875,4.46875 1.46875,1.14844 3.04687,2.11328 4.73828,2.90235 1.6289,0.75781 3.30859,1.3789 5.03515,1.86328 0.42969,0.12109 0.8711,0.23828 1.28907,0.33203 l 1.2539,0.26953 c 0.83594,0.17578 1.67188,0.36328 2.51172,0.52734 l 2.53125,0.38672 1.26953,0.19141 1.27344,0.11719 2.54688,0.23046 c 0.85156,0.043 1.69921,0.0625 2.55468,0.0937 l 1.27344,0.0391 c 0.42578,0.0156 0.85156,0 1.27734,-0.0156 l 2.54688,-0.0664 c 3.39844,-0.16797 6.76172,-0.58985 10.09766,-1.26563 l 1.24609,-0.25 0.625,-0.12891 0.61328,-0.15625 2.45703,-0.64062 c 0.82422,-0.19141 1.6211,-0.48438 2.42578,-0.73047 l 1.21094,-0.39062 c 0.39844,-0.13282 0.80859,-0.2461 1.18359,-0.40625 l 2.3711,-0.91016 c 0.39453,-0.15625 0.79297,-0.29688 1.18359,-0.46875 l 1.15625,-0.51953 c 0.76563,-0.35156 1.54297,-0.6875 2.30078,-1.05078 l 2.2461,-1.1836 1.11718,-0.59375 1.08985,-0.64843 2.16406,-1.29688 2.07422,-1.42187 1.04297,-0.71485 c 0.34375,-0.24219 0.66797,-0.51172 1.0039,-0.76562 2.72266,-2.00782 5.22657,-4.26172 7.50391,-6.76172 2.32031,-2.51953 4.23438,-5.3125 5.74609,-8.38281 0.7461,-1.54297 1.33594,-3.14063 1.78125,-4.79297 0.4375,-1.66407 0.67188,-3.35938 0.69532,-5.08203 0.0312,-1.71094 -0.15625,-3.40235 -0.55469,-5.06641 -0.39063,-1.65234 -0.97656,-3.23438 -1.75781,-4.73828 -0.77735,-1.50781 -1.76953,-2.86328 -2.96875,-4.0625 -1.20313,-1.19141 -2.57422,-2.14453 -4.11328,-2.85547 l -0.21094,0.42187 c 1.44531,0.75 2.73047,1.71094 3.85937,2.88282 1.13282,1.17187 2.04297,2.49609 2.74219,3.96875 0.70313,1.46484 1.21875,2.99609 1.54297,4.58984 0.32812,1.59375 0.45703,3.20703 0.37891,4.83203 -0.0703,1.625 -0.33204,3.21875 -0.78125,4.78125 -0.46485,1.5625 -1.07032,3.06641 -1.8125,4.51172 -1.52735,2.90625 -3.4375,5.53516 -5.72266,7.88672 -2.26563,2.35547 -4.73438,4.47656 -7.40625,6.35937 -0.33203,0.24219 -0.65234,0.4961 -0.98828,0.72266 l -1.03125,0.66797 -2.05078,1.33594 -2.13282,1.21093 -1.0625,0.59375 -1.09375,0.54297 -2.19531,1.08985 c -0.74609,0.33203 -1.5,0.64062 -2.25,0.96484 l -1.14844,0.48438 c -0.375,0.16406 -0.76562,0.29296 -1.14843,0.42578 l -2.30469,0.82812 c -0.37891,0.14844 -0.77734,0.2461 -1.16797,0.36719 l -1.18359,0.35156 c -0.78516,0.22266 -1.5586,0.48828 -2.3711,0.65235 l -2.37109,0.5664 -0.58984,0.14063 -0.59375,0.10937 -1.20704,0.21094 -1.20703,0.21875 -0.58984,0.10547 c -0.20313,0.0312 -0.40625,0.0547 -0.59375,0.082 l -2.43359,0.29297 c -0.80469,0.12109 -1.6211,0.14844 -2.4375,0.20703 l -1.21875,0.0781 c -0.41016,0.0234 -0.81641,0.0703 -1.22657,0.0625 l -2.44531,0.0234 c -0.41016,0 -0.81641,0.0156 -1.22266,0 l -1.22265,-0.0625 c -0.81641,-0.043 -1.63281,-0.0742 -2.44531,-0.125 l -2.4336,-0.26172 -1.21875,-0.13281 -1.20312,-0.20312 -2.41407,-0.40625 c -0.79687,-0.17188 -1.59375,-0.36719 -2.38671,-0.54688 -0.79297,-0.17969 -1.59375,-0.35547 -2.3711,-0.59375 -3.09375,-0.93359 -6.10547,-2.30469 -8.60937,-4.32812 -1.26172,-1.00391 -2.30469,-2.19922 -3.11719,-3.58985 -0.79688,-1.40234 -1.19141,-2.90625 -1.1875,-4.51953 0.004,-1.61328 0.42187,-3.10937 1.25391,-4.49219 0.84375,-1.375 1.91796,-2.53125 3.22265,-3.47656 1.30469,-0.95703 2.70313,-1.73828 4.20313,-2.34766 1.5,-0.61718 3.04297,-1.08984 4.6289,-1.41796 0.78907,-0.16016 1.58985,-0.28907 2.39453,-0.38282 0.40235,-0.0469 0.80469,-0.082 1.21094,-0.10937 0.40625,-0.0274 0.8086,-0.0508 1.21485,-0.0703 1.625,-0.0664 3.25,-0.0312 4.87109,0.10937 3.25781,0.26172 6.42187,0.96875 9.48047,2.12109 1.51562,0.58204 2.96484,1.28907 4.35156,2.12891 1.38672,0.83203 2.66016,1.8125 3.82422,2.9375 1.14844,1.11719 2.13281,2.36328 2.95312,3.73828 1.69922,2.82813 2.5,5.88672 2.39844,9.1836 -0.0469,1.61328 -0.28906,3.1914 -0.72656,4.74218 -0.89453,3.14453 -2.38281,5.98047 -4.46484,8.50391 -2.0586,2.54297 -4.54297,4.55859 -7.45704,6.04687 -0.73046,0.34375 -1.44531,0.72266 -2.20703,0.9961 -0.3789,0.14453 -0.75,0.29297 -1.1289,0.43359 l -1.15625,0.36719 -0.57813,0.17969 -0.59375,0.14843 -1.18359,0.29297 c -0.39844,0.082 -0.79297,0.14844 -1.1875,0.22266 -0.39063,0.0742 -0.79297,0.15234 -1.19922,0.1875 -3.23438,0.42187 -6.46875,0.41016 -9.70313,-0.0273 -3.23437,-0.42969 -6.38671,-1.19141 -9.45703,-2.28907 -3.0664,-1.11328 -6.03125,-2.45312 -8.89062,-4.01953 -5.76563,-3.08984 -11.11719,-6.89453 -16.46094,-10.6875 -5.34766,-3.79297 -10.71484,-7.63672 -16.5,-10.82422 -2.89062,-1.61718 -5.88281,-3.01172 -8.98437,-4.17578 -1.54297,-0.59375 -3.13282,-1.07422 -4.73829,-1.51953 l -2.42187,-0.57422 -2.44531,-0.44531 c -6.64453,-1 -13.21875,-0.64063 -19.71875,1.07422 -3.21485,0.84765 -6.3125,2.01562 -9.28516,3.5039 l -1.10156,0.57422 c -0.3711,0.1875 -0.73438,0.37891 -1.08985,0.59375 l -1.07031,0.62891 -0.53515,0.31641 -0.52344,0.33984 c -1.39844,0.90234 -2.73047,1.89844 -3.98828,2.98437 -2.51172,2.17579 -4.72266,4.77735 -6.16016,7.82422 -0.73047,1.53516 -1.21875,3.14063 -1.46484,4.82032 -0.25782,1.70703 -0.16016,3.39062 0.29687,5.05468 0.44531,1.65625 1.16406,3.1836 2.16406,4.57813 0.98047,1.41797 2.20313,2.58203 3.66797,3.49609 0.73047,0.46875 1.51172,0.82422 2.34375,1.07031 0.83203,0.24219 1.67969,0.36719 2.54688,0.36719 0.86719,0 1.71875,-0.12109 2.55078,-0.35937 0.83594,-0.24219 1.61719,-0.59766 2.34766,-1.0625 0.17968,-0.11719 0.35156,-0.24219 0.53125,-0.36328 l 0.26171,-0.17969 c 0.0859,-0.0664 0.16797,-0.13672 0.25,-0.19922 l 0.48047,-0.39844 0.45703,-0.44531 c 0.31641,-0.29688 0.57032,-0.62891 0.85938,-0.94531 0.12891,-0.16407 0.25391,-0.33985 0.38281,-0.50782 0.12891,-0.16796 0.25,-0.34375 0.35938,-0.52734 0.94531,-1.4375 1.58203,-3 1.92187,-4.68359 0.31641,-1.67578 0.35156,-3.35547 0.0977,-5.03907 -0.25391,-1.66796 -0.70313,-3.27734 -1.35547,-4.83203 -0.64844,-1.53906 -1.42578,-3.00781 -2.33984,-4.40625 -0.44532,-0.69922 -0.92579,-1.37109 -1.44141,-2.01953 l -0.76563,-0.98047 -0.38671,-0.48828 c -0.125,-0.16797 -0.27344,-0.3125 -0.41016,-0.46484 -0.56641,-0.60938 -1.11328,-1.23438 -1.69141,-1.82813 l -1.8125,-1.70703 c -0.63672,-0.53125 -1.28906,-1.04687 -1.92578,-1.57422 -0.3164,-0.26953 -0.66406,-0.49609 -1.0039,-0.73828 l -1.01954,-0.71094 c -2.76562,-1.85156 -5.71484,-3.35156 -8.84375,-4.49218 -3.125,-1.15625 -6.34765,-1.89453 -9.66406,-2.22657 -3.32031,-0.33593 -6.625,-0.23437 -9.91797,0.29688 -1.64843,0.23828 -3.26562,0.62109 -4.84765,1.15234 -1.60157,0.52344 -3.10547,1.25391 -4.50782,2.19141 -0.70312,0.48047 -1.35156,1.01953 -1.94921,1.61719 -0.91407,0.91797 -1.63282,1.96484 -2.16016,3.14843 -0.52344,1.17969 -0.82031,2.41797 -0.88672,3.71094 -0.0937,1.79688 0.39063,3.42188 1.45703,4.8711 0.54297,0.69921 1.19922,1.26562 1.97266,1.69531 0.76562,0.41797 1.58203,0.6914 2.4414,0.8164 1.73438,0.25391 3.41016,0.0547 5.03907,-0.58984 1.64062,-0.60937 3.01172,-1.59766 4.10937,-2.96484 0.53516,-0.6836 0.94141,-1.4375 1.21485,-2.26172 0.14843,-0.40235 0.26171,-0.8125 0.34375,-1.23438 l 0.12109,-0.625 c 0.0273,-0.21093 0.0391,-0.42187 0.0625,-0.63672 0.125,-1.71484 -0.11328,-3.3789 -0.72266,-4.99218 -0.60547,-1.58594 -1.45312,-3.03125 -2.53906,-4.33594 -1.08594,-1.30469 -2.35156,-2.39844 -3.80469,-3.28125 -1.44531,-0.85938 -2.98047,-1.51563 -4.60156,-1.96484 -1.60937,-0.44532 -3.24609,-0.73047 -4.91406,-0.85938 -3.3125,-0.21875 -6.61328,-0.0625 -9.89063,0.46875 -3.26562,0.46875 -6.49609,1.10547 -9.69531,1.91016 -6.38281,1.60156 -12.64453,3.64453 -18.91406,5.52343 -3.14063,0.94141 -6.29297,1.83204 -9.48047,2.60157 -0.79687,0.19531 -1.58984,0.39062 -2.39453,0.55468 -0.80078,0.16407 -1.59375,0.35938 -2.39844,0.50391 -1.60547,0.29688 -3.21875,0.57031 -4.83984,0.76953 -6.48047,0.78906 -13.11328,0.74219 -19.488284,-0.6914 -3.207031,-0.69922 -6.265625,-1.80079 -9.1875,-3.29688 -2.910196,-1.51158 -5.515665,-3.43345 -7.816446,-5.7733 z m 0,0"
       fill-opacity="1"
       fill-rule="nonzero"
       id="path3" />
  </g>
  <g
     clip-path="url(#4e420d0541)"
     id="g4"
     transform="translate(-77.253906,-346.91797)">
    <path
       fill="#a87b05"
       d="m 690.39844,374.55859 c -2.36719,2.25 -5.02344,4.08594 -7.96485,5.50782 -2.93359,1.39453 -5.99218,2.39453 -9.18359,2.99609 -6.32813,1.25 -12.86719,1.14062 -19.23047,0.20312 -1.59375,-0.23437 -3.17578,-0.53125 -4.73828,-0.88671 -0.39453,-0.0859 -0.78906,-0.17188 -1.18359,-0.27344 l -1.1875,-0.28125 c -0.78907,-0.17578 -1.57032,-0.38672 -2.3711,-0.58985 -3.13281,-0.82421 -6.24219,-1.77734 -9.35547,-2.76953 -6.22265,-2 -12.4414,-4.17187 -18.89062,-5.91406 -3.25,-0.87109 -6.53516,-1.57422 -9.85938,-2.10547 -3.42578,-0.60547 -6.875,-0.8164 -10.35156,-0.63672 -3.55469,0.23047 -7.22656,1.05469 -10.54687,2.99219 -1.6875,1 -3.16797,2.24609 -4.44532,3.73828 -1.29687,1.50391 -2.30468,3.1836 -3.02734,5.03516 -0.76172,1.95312 -1.07422,3.97656 -0.94531,6.07031 0.0234,0.26563 0.0391,0.53125 0.0703,0.79688 l 0.14453,0.79296 c 0.043,0.26563 0.10156,0.52735 0.17578,0.78516 l 0.23828,0.77344 0.12891,0.38672 c 0.043,0.1289 0.10937,0.26562 0.16016,0.39843 l 0.17968,0.40235 0.20313,0.38672 c 0.26953,0.50781 0.58203,0.99218 0.92969,1.45312 1.39062,1.76563 3.13281,3.05078 5.23046,3.85156 2.07422,0.83594 4.21875,1.09375 6.4375,0.77735 1.1836,-0.16797 2.30469,-0.53906 3.35938,-1.10938 1.11719,-0.61328 2.07031,-1.41797 2.85547,-2.41406 0.72656,-0.96094 1.26953,-2.01562 1.63281,-3.16797 0.35938,-1.14844 0.51563,-2.32422 0.46875,-3.52734 -0.0273,-1.11719 -0.20703,-2.20703 -0.53125,-3.27735 -0.32031,-1.03906 -0.75391,-2.02734 -1.30859,-2.96093 -0.14063,-0.23047 -0.27735,-0.46485 -0.42969,-0.69141 l -0.44922,-0.66797 -0.52734,-0.64062 c -0.17969,-0.21094 -0.35938,-0.38672 -0.53907,-0.59375 -0.72656,-0.73828 -1.51953,-1.40625 -2.37109,-2 -1.62109,-1.10938 -3.35937,-1.98047 -5.21875,-2.60938 -0.89062,-0.3125 -1.77734,-0.57031 -2.66797,-0.78906 -0.88672,-0.22266 -1.77734,-0.37109 -2.66406,-0.53906 -3.5625,-0.61719 -7.14453,-0.76563 -10.74609,-0.44141 -3.58985,0.32813 -7.07813,1.10938 -10.46485,2.33594 -3.39453,1.21094 -6.59375,2.8125 -9.59765,4.80078 l -1.10938,0.76562 c -0.36719,0.26172 -0.74609,0.50391 -1.09375,0.79297 -0.70312,0.56641 -1.41016,1.125 -2.10547,1.70313 l -1.98828,1.84765 c -0.63672,0.64063 -1.23828,1.32032 -1.85937,1.98047 -0.14844,0.17188 -0.3125,0.33203 -0.45313,0.50782 l -0.42187,0.53515 -0.84766,1.06641 c -0.57422,0.71484 -1.10938,1.46094 -1.60547,2.23047 -1.03906,1.57031 -1.92578,3.21875 -2.66797,4.94922 -0.77344,1.82421 -1.30859,3.71093 -1.61328,5.66796 -0.32422,2.08594 -0.29297,4.16797 0.10156,6.24219 0.41797,2.12891 1.21875,4.10547 2.40235,5.92578 0.13672,0.23047 0.29297,0.44922 0.45703,0.66797 0.16406,0.22266 0.32031,0.44141 0.48828,0.65625 l 0.53906,0.62891 c 0.0899,0.10156 0.17578,0.20703 0.26953,0.29687 l 0.29688,0.29688 c 0.19922,0.19531 0.39453,0.39062 0.59375,0.58984 l 0.64844,0.54688 c 0.10937,0.0898 0.21484,0.18359 0.33203,0.26953 l 0.35156,0.24609 c 0.23437,0.16406 0.46875,0.33203 0.71094,0.48828 2.08593,1.30078 4.35547,1.96485 6.8164,1.99219 1.22266,0.008 2.42188,-0.16016 3.59375,-0.50391 1.12891,-0.33984 2.19532,-0.8164 3.20313,-1.42968 1.89453,-1.17188 3.48437,-2.67578 4.76562,-4.50391 1.2461,-1.75781 2.14844,-3.67969 2.70703,-5.76172 0.28125,-1.05469 0.46094,-2.1289 0.53516,-3.21875 l 0.0312,-0.83203 c 0,-0.27734 0,-0.55859 0,-0.83594 0,-0.28125 -0.0391,-0.5664 -0.0586,-0.84765 -0.0195,-0.28125 -0.0703,-0.52344 -0.10547,-0.78516 -0.29297,-2.05469 -0.88672,-4.01562 -1.77735,-5.88672 -0.84375,-1.79297 -1.88671,-3.45703 -3.1289,-5 -1.1875,-1.47656 -2.4961,-2.83594 -3.92969,-4.07812 -1.39062,-1.20703 -2.85937,-2.3086 -4.41016,-3.3086 l -0.57421,-0.37109 -0.59375,-0.33984 -1.15625,-0.6875 c -0.38282,-0.23438 -0.78125,-0.44141 -1.1875,-0.64844 l -1.1836,-0.6211 c -3.20703,-1.60546 -6.54297,-2.86718 -10.01172,-3.78125 -7.0039,-1.85937 -14.08984,-2.2539 -21.25781,-1.18359 l -2.64453,0.48047 -2.61719,0.625 c -1.71484,0.48047 -3.42578,0.99609 -5.07422,1.63281 -3.26953,1.23047 -6.42968,2.70313 -9.48047,4.41406 -3.01953,1.66016 -5.89453,3.48438 -8.6875,5.35547 -2.79687,1.8711 -5.5039,3.80469 -8.16796,5.71485 -5.33204,3.82031 -10.55079,7.53515 -16.02344,10.51562 -2.69141,1.48438 -5.48438,2.75781 -8.3711,3.81641 -2.82421,1.02344 -5.72656,1.74609 -8.69921,2.16406 -2.91797,0.42188 -5.83985,0.45313 -8.76954,0.0977 -0.35937,-0.0312 -0.71093,-0.0977 -1.0664,-0.16016 l -1.0586,-0.1875 -1.03906,-0.24609 -0.51953,-0.1211 -0.51172,-0.16015 -1.01562,-0.3125 c -0.33203,-0.11328 -0.65625,-0.25391 -0.98828,-0.375 -0.66797,-0.23047 -1.28907,-0.5586 -1.92969,-0.84766 -4.84766,-2.37109 -8.78125,-7.11328 -10.27735,-12.34766 -0.375,-1.28515 -0.58593,-2.59765 -0.63671,-3.9375 -0.043,-1.30468 0.0898,-2.58984 0.40234,-3.85156 0.32812,-1.26172 0.82422,-2.45703 1.48047,-3.58203 0.67578,-1.14453 1.48437,-2.1875 2.42969,-3.125 1.89453,-1.91797 4.36718,-3.39844 7.05468,-4.48437 2.77344,-1.08204 5.64844,-1.76172 8.61328,-2.03907 1.4961,-0.14843 2.99219,-0.19922 4.4961,-0.15234 0.37109,0 0.75,0.0195 1.12109,0.0469 l 0.5586,0.0352 0.53906,0.0508 c 0.71484,0.0703 1.42578,0.17578 2.13672,0.3125 1.42187,0.27344 2.80468,0.67578 4.14843,1.20703 1.29297,0.5 2.50391,1.15235 3.63282,1.95703 1.02734,0.71485 1.875,1.59375 2.55078,2.64454 0.60547,0.95703 0.91406,2.0039 0.93359,3.13281 0.0234,1.15625 -0.23828,2.24219 -0.79297,3.25781 -0.63281,1.12891 -1.45312,2.10547 -2.45312,2.92188 -2.09766,1.77734 -4.84766,3.11328 -7.70313,4.02343 -0.36328,0.11328 -0.71093,0.22266 -1.08984,0.31641 l -1.14453,0.29687 c -0.76172,0.1875 -1.52344,0.38672 -2.28906,0.56641 l -2.32032,0.42969 -1.16406,0.21484 -1.18359,0.14844 -2.34766,0.29297 c -0.78516,0.0664 -1.57422,0.10937 -2.36719,0.16406 l -1.1875,0.0781 c -0.39453,0.0273 -0.78906,0 -1.18359,0.0195 l -2.37109,0.0195 c -0.39844,0 -0.78907,-0.0274 -1.1836,-0.0391 l -1.1875,-0.0586 c -0.78906,-0.043 -1.58203,-0.0547 -2.36719,-0.15625 l -2.37109,-0.25 c -0.19531,-0.0234 -0.39453,-0.0351 -0.59375,-0.0664 l -0.59375,-0.0899 -2.36719,-0.375 -0.59375,-0.0898 -0.59375,-0.125 -2.33203,-0.50391 c -0.78125,-0.14453 -1.53906,-0.39062 -2.30469,-0.59375 l -1.10156,-0.33203 c -0.38281,-0.10937 -0.77344,-0.19922 -1.14453,-0.33594 l -2.26562,-0.76172 c -0.375,-0.13281 -0.76172,-0.24218 -1.12891,-0.39453 l -1.10938,-0.44531 c -0.73828,-0.29687 -1.48046,-0.59375 -2.21875,-0.88672 l -2.16406,-1.01953 -1.08594,-0.51172 -1.05078,-0.57031 -2.10547,-1.14453 -2.03515,-1.26563 -1.01953,-0.63281 c -0.33594,-0.21484 -0.65625,-0.46094 -0.98438,-0.6875 -2.65625,-1.78906 -5.125,-3.80859 -7.40625,-6.05469 -2.27734,-2.23047 -4.19531,-4.73828 -5.75,-7.51953 -0.75781,-1.38672 -1.3789,-2.83203 -1.86719,-4.33594 -0.47656,-1.5039 -0.77343,-3.03906 -0.88671,-4.61328 -0.1211,-1.58203 -0.043,-3.15625 0.23046,-4.71875 0.27344,-1.57422 0.73438,-3.08984 1.38282,-4.54687 0.64843,-1.47656 1.51562,-2.8125 2.59765,-4.00781 1.08594,-1.19141 2.32813,-2.1836 3.73438,-2.97657 l -0.20703,-0.42187 c -1.4961,0.76953 -2.83203,1.75781 -4,2.96484 -1.17188,1.20703 -2.1211,2.56641 -2.84375,4.08594 -0.72657,1.50391 -1.26172,3.07422 -1.59766,4.71094 -0.34375,1.63281 -0.47656,3.28515 -0.40625,4.95703 0.0664,1.66797 0.33203,3.30469 0.78906,4.91015 0.47266,1.59766 1.08203,3.13282 1.83985,4.61719 1.53906,2.95313 3.46875,5.62891 5.78515,8.02344 2.28907,2.39453 4.78516,4.54687 7.48438,6.46094 0.33203,0.23828 0.65625,0.5 1,0.72656 l 1.03515,0.67969 2.07422,1.35547 2.14453,1.22656 1.07032,0.61719 1.10547,0.55468 2.21875,1.10157 c 0.74609,0.33984 1.51171,0.65625 2.26953,0.98437 l 1.13672,0.48438 c 0.375,0.17187 0.76953,0.29687 1.15625,0.4375 l 2.32421,0.84375 c 0.38672,0.15234 0.78516,0.25 1.1836,0.375 l 1.1875,0.35546 c 0.78906,0.23047 1.57031,0.5 2.36719,0.67188 l 2.40625,0.57812 0.59375,0.14063 0.59375,0.11328 1.21484,0.21875 c 3.25391,0.59766 6.52734,0.95313 9.83203,1.07031 l 2.47266,0.0234 c 0.41406,0 0.82812,0.0195 1.23828,0 l 1.23828,-0.0586 c 0.82031,-0.043 1.64453,-0.0742 2.46875,-0.125 l 3.69141,-0.39844 1.22265,-0.20313 L 443.14453,399 c 0.80859,-0.17188 1.60938,-0.36328 2.41406,-0.54688 0.8086,-0.18359 1.60938,-0.35937 2.40625,-0.59375 3.17188,-0.95703 6.25782,-2.34765 8.89063,-4.44531 1.33594,-1.05859 2.4375,-2.32422 3.30078,-3.79687 0.86328,-1.51563 1.29687,-3.14453 1.28906,-4.89063 0,-1.75 -0.44922,-3.3789 -1.35156,-4.8789 -0.89063,-1.46485 -2.03125,-2.69922 -3.41797,-3.70313 -1.35547,-1 -2.80859,-1.8125 -4.36719,-2.44922 -1.54297,-0.63672 -3.13281,-1.125 -4.76953,-1.46094 -0.8125,-0.16796 -1.63672,-0.30078 -2.46484,-0.39843 -0.41406,-0.0469 -0.82813,-0.0859 -1.24219,-0.11328 -0.41406,-0.0274 -0.82422,-0.0547 -1.24219,-0.0742 -1.65625,-0.0703 -3.3125,-0.0352 -4.96484,0.10547 -3.32813,0.26953 -6.55859,0.98828 -9.6875,2.16015 -1.55859,0.59766 -3.05469,1.32813 -4.48047,2.19141 -1.44141,0.86328 -2.76562,1.875 -3.96875,3.04687 -1.21484,1.16407 -2.25781,2.47266 -3.125,3.91797 -0.875,1.44141 -1.53125,2.98047 -1.96484,4.60938 -0.4336,1.63281 -0.62891,3.28906 -0.58203,4.97656 0.043,1.68359 0.29296,3.33594 0.74609,4.95703 0.92187,3.26172 2.46094,6.19531 4.61328,8.8125 2.13281,2.63672 4.70703,4.72656 7.72266,6.26953 0.7539,0.35547 1.48047,0.75 2.27734,1.03125 0.39063,0.14844 0.76953,0.3125 1.16406,0.45313 l 1.1875,0.375 0.58985,0.1914 0.59375,0.14453 1.21093,0.29688 c 0.40625,0.082 0.82032,0.15234 1.22657,0.22656 0.41015,0.0742 0.82031,0.15625 1.23047,0.19531 3.3125,0.4336 6.62109,0.42969 9.92968,-0.0195 3.29688,-0.42968 6.51172,-1.20312 9.64453,-2.32031 3.125,-1.11328 6.14454,-2.46484 9.0586,-4.04687 5.8125,-3.13672 11.20312,-6.94922 16.55078,-10.7461 5.34766,-3.79687 10.69531,-7.60547 16.42187,-10.75 2.85157,-1.59765 5.80079,-2.97265 8.85938,-4.12109 1.51953,-0.59375 3.07812,-1.05078 4.64062,-1.48438 l 2.3711,-0.55859 2.39844,-0.43359 c 6.51562,-0.98438 12.96093,-0.63672 19.33593,1.03906 3.15625,0.82812 6.19141,1.96875 9.10938,3.42187 l 1.08203,0.56641 c 0.36328,0.18359 0.72266,0.37109 1.06641,0.58984 l 1.05468,0.61719 0.52344,0.29688 0.50781,0.32812 c 1.36328,0.87891 2.66016,1.84375 3.89063,2.90234 2.4414,2.11329 4.57422,4.625 5.94531,7.52735 0.69531,1.44922 1.15625,2.96875 1.39063,4.5625 0.24609,1.58594 0.15625,3.15234 -0.26563,4.69922 -0.41406,1.55078 -1.08203,2.98437 -2.00391,4.29687 -0.91015,1.32031 -2.04687,2.40625 -3.40234,3.25781 -0.66406,0.42969 -1.37109,0.75391 -2.12891,0.98047 -0.7539,0.22266 -1.52734,0.33594 -2.3125,0.33594 -0.78906,0.004 -1.5625,-0.10547 -2.3164,-0.32422 -0.75781,-0.21875 -1.46875,-0.54297 -2.13281,-0.96484 -2.66407,-1.67969 -4.50782,-4.58594 -5.12891,-7.6836 -0.30469,-1.57421 -0.33594,-3.15625 -0.0937,-4.74218 0.23828,-1.59375 0.66797,-3.13672 1.28906,-4.625 0.62891,-1.49219 1.38281,-2.91797 2.26563,-4.27735 0.4375,-0.68359 0.90625,-1.34375 1.41015,-1.97656 l 0.7461,-0.95703 0.3789,-0.48047 c 0.1211,-0.16016 0.26953,-0.29687 0.40235,-0.45703 0.55078,-0.59375 1.08203,-1.20703 1.64843,-1.77734 l 1.77735,-1.66797 c 0.62109,-0.52344 1.25781,-1.02735 1.88672,-1.54297 0.29687,-0.26953 0.64843,-0.48828 0.97656,-0.72266 l 1,-0.69922 c 2.71484,-1.82812 5.60937,-3.30468 8.68359,-4.42968 3.06641,-1.13282 6.22657,-1.86719 9.48047,-2.19141 3.2461,-0.32813 6.48047,-0.23047 9.70313,0.29297 1.60547,0.23437 3.17968,0.60547 4.72265,1.11719 1.53516,0.5 2.97266,1.19531 4.31641,2.09375 1.34375,0.88671 2.44141,2.01171 3.28906,3.3789 0.83985,1.3711 1.29688,2.86328 1.3711,4.46875 0.0898,1.61328 -0.34375,3.07031 -1.29688,4.3711 -0.47656,0.61328 -1.05469,1.10546 -1.73437,1.48437 -0.6875,0.375 -1.41797,0.62109 -2.19141,0.73828 -1.59766,0.23828 -3.14063,0.0586 -4.64063,-0.53125 -1.51171,-0.55859 -2.77343,-1.46484 -3.78515,-2.71875 -0.48828,-0.61719 -0.85156,-1.30078 -1.09766,-2.05078 -0.13672,-0.36719 -0.24219,-0.74609 -0.3164,-1.13281 l -0.1211,-0.59375 -0.0508,-0.59375 c -0.12109,-1.60547 0.10156,-3.16406 0.66797,-4.67188 0.57422,-1.5039 1.375,-2.875 2.40234,-4.11328 1.02735,-1.23828 2.22657,-2.28125 3.59766,-3.125 1.39062,-0.82812 2.86328,-1.46094 4.42187,-1.89062 1.5625,-0.4336 3.15235,-0.71485 4.76954,-0.83985 3.26171,-0.21484 6.50781,-0.0664 9.73437,0.45313 3.23828,0.46875 6.44922,1.09375 9.625,1.88281 6.35938,1.5625 12.60547,3.58594 18.90234,5.44922 3.14844,0.93359 6.31641,1.81641 9.51563,2.58594 0.80078,0.1875 1.60156,0.38281 2.40625,0.54687 0.80469,0.16406 1.60937,0.35547 2.42187,0.5 1.61719,0.29688 3.25782,0.56641 4.88282,0.76172 6.53515,0.77734 13.22656,0.70703 19.67578,-0.75781 3.24219,-0.71875 6.33984,-1.83985 9.29297,-3.35547 2.95703,-1.54297 5.60156,-3.50781 7.9375,-5.89063 z m 0,0"
       fill-opacity="1"
       fill-rule="nonzero"
       id="path4" />
  </g>
</svg>
