<svg xmlns="http://www.w3.org/2000/svg" xmlns:xlink="http://www.w3.org/1999/xlink" width="1024" zoomAndPan="magnify" viewBox="0 0 768 767.999994" height="1024" preserveAspectRatio="xMidYMid meet" version="1.0"><defs><clipPath id="90ddbd8d81"><path d="M 371 76.800781 L 395 76.800781 L 395 131 L 371 131 Z M 371 76.800781 " clip-rule="nonzero"/></clipPath><clipPath id="8ec0432dbb"><path d="M 371 637 L 395 637 L 395 691.050781 L 371 691.050781 Z M 371 637 " clip-rule="nonzero"/></clipPath></defs><path fill="#a87b05" d="M 576.730469 324.996094 L 530.335938 324.996094 C 518.980469 324.996094 509.753906 315.769531 509.753906 304.414062 L 509.753906 289.273438 C 509.753906 277.914062 518.980469 268.6875 530.335938 268.6875 L 576.730469 268.6875 C 588.085938 268.6875 597.3125 277.914062 597.3125 289.273438 L 597.3125 304.414062 C 597.34375 315.769531 588.085938 324.996094 576.730469 324.996094 Z M 532.402344 302.378906 L 574.726562 302.378906 L 574.726562 291.304688 L 532.402344 291.304688 Z M 532.402344 302.378906 " fill-opacity="1" fill-rule="nonzero"/><path fill="#a87b05" d="M 596.1875 235.871094 L 486.761719 235.871094 L 472.714844 188.292969 C 469.054688 175.964844 456.542969 167.332031 442.246094 167.332031 L 325.625 167.332031 C 311.328125 167.332031 298.78125 175.933594 295.152344 188.292969 L 281.109375 235.839844 L 252.015625 235.839844 L 252.015625 218.261719 C 252.015625 207.875 243.570312 199.460938 233.214844 199.460938 L 187.574219 199.460938 C 177.1875 199.460938 168.773438 207.90625 168.773438 218.261719 L 168.773438 236.121094 C 143.433594 237.71875 123.257812 258.582031 123.257812 284.296875 L 123.257812 552.109375 C 123.257812 578.824219 144.964844 600.535156 171.679688 600.535156 L 596.1875 600.535156 C 622.902344 600.535156 644.613281 578.824219 644.613281 552.109375 L 644.613281 284.296875 C 644.613281 257.582031 622.902344 235.871094 596.1875 235.871094 Z M 316.863281 194.703125 C 317.550781 192.359375 321.023438 189.949219 325.65625 189.949219 L 442.246094 189.949219 C 446.875 189.949219 450.347656 192.359375 451.035156 194.671875 L 463.171875 235.839844 L 304.726562 235.839844 Z M 191.359375 222.109375 L 229.398438 222.109375 L 229.398438 235.871094 L 191.359375 235.871094 Z M 171.679688 258.488281 L 596.1875 258.488281 C 610.421875 258.488281 621.996094 270.0625 621.996094 284.296875 L 621.996094 334.726562 L 492.390625 334.726562 C 467.550781 300.628906 427.417969 278.355469 382.089844 278.355469 C 336.761719 278.355469 296.65625 300.628906 271.785156 334.726562 L 145.875 334.726562 L 145.875 284.296875 C 145.875 270.0625 157.449219 258.488281 171.679688 258.488281 Z M 382.121094 300.972656 C 444.933594 300.972656 496.050781 352.085938 496.050781 414.902344 C 496.050781 477.71875 444.933594 528.832031 382.121094 528.832031 C 319.304688 528.832031 268.1875 477.71875 268.1875 414.902344 C 268.1875 352.085938 319.304688 300.972656 382.121094 300.972656 Z M 596.1875 577.917969 L 171.679688 577.917969 C 157.449219 577.917969 145.875 566.339844 145.875 552.109375 L 145.875 357.34375 L 258.460938 357.34375 C 250.261719 374.859375 245.570312 394.320312 245.570312 414.902344 C 245.570312 490.199219 306.824219 551.453125 382.121094 551.453125 C 457.417969 551.453125 518.667969 490.199219 518.667969 414.902344 C 518.667969 394.320312 513.976562 374.859375 505.78125 357.34375 L 621.996094 357.34375 L 621.996094 552.109375 C 621.996094 566.339844 610.421875 577.917969 596.1875 577.917969 Z M 596.1875 577.917969 " fill-opacity="1" fill-rule="nonzero"/><path fill="#a87b05" d="M 415.375 199.929688 L 352.496094 199.929688 C 346.238281 199.929688 341.171875 204.996094 341.171875 211.253906 C 341.171875 217.507812 346.238281 222.578125 352.496094 222.578125 L 415.40625 222.578125 C 421.660156 222.578125 426.730469 217.507812 426.730469 211.253906 C 426.730469 204.996094 421.628906 199.929688 415.375 199.929688 Z M 415.375 199.929688 " fill-opacity="1" fill-rule="nonzero"/><path fill="#a87b05" d="M 382.121094 518.980469 C 324.714844 518.980469 278.042969 472.273438 278.042969 414.902344 C 278.042969 357.5 324.746094 310.824219 382.121094 310.824219 C 439.523438 310.824219 486.195312 357.53125 486.195312 414.902344 C 486.195312 472.273438 439.492188 518.980469 382.121094 518.980469 Z M 382.121094 333.441406 C 337.199219 333.441406 300.660156 369.980469 300.660156 414.902344 C 300.660156 459.824219 337.199219 496.363281 382.121094 496.363281 C 427.042969 496.363281 463.578125 459.824219 463.578125 414.902344 C 463.578125 369.980469 427.042969 333.441406 382.121094 333.441406 Z M 382.121094 333.441406 " fill-opacity="1" fill-rule="nonzero"/><path fill="#a87b05" d="M 317.175781 426.195312 C 310.921875 426.195312 305.851562 421.128906 305.851562 414.871094 C 305.851562 372.828125 340.042969 338.636719 382.089844 338.636719 C 388.34375 338.636719 393.414062 343.703125 393.414062 349.960938 C 393.414062 356.214844 388.34375 361.285156 382.089844 361.285156 C 352.527344 361.285156 328.46875 385.339844 328.46875 414.902344 C 328.46875 421.128906 323.433594 426.195312 317.175781 426.195312 Z M 317.175781 426.195312 " fill-opacity="1" fill-rule="nonzero"/><path fill="#a87b05" d="M 190.167969 561.210938 C 172.777344 561.210938 158.636719 547.070312 158.636719 529.679688 C 158.636719 512.285156 172.777344 498.144531 190.167969 498.144531 C 207.5625 498.144531 221.703125 512.285156 221.703125 529.679688 C 221.703125 547.070312 207.5625 561.210938 190.167969 561.210938 Z M 190.167969 520.761719 C 185.257812 520.761719 181.253906 524.765625 181.253906 529.679688 C 181.253906 534.589844 185.257812 538.59375 190.167969 538.59375 C 195.082031 538.59375 199.085938 534.589844 199.085938 529.679688 C 199.085938 524.765625 195.082031 520.761719 190.167969 520.761719 Z M 190.167969 520.761719 " fill-opacity="1" fill-rule="nonzero"/><g clip-path="url(#90ddbd8d81)"><path fill="#a87b05" d="M 382.683594 130.855469 C 376.425781 130.855469 371.359375 125.789062 371.359375 119.53125 L 371.359375 88.125 C 371.359375 81.867188 376.425781 76.800781 382.683594 76.800781 C 388.9375 76.800781 394.007812 81.867188 394.007812 88.125 L 394.007812 119.5625 C 393.976562 125.789062 388.90625 130.855469 382.683594 130.855469 Z M 382.683594 130.855469 " fill-opacity="1" fill-rule="nonzero"/></g><path fill="#a87b05" d="M 327.1875 148.09375 C 324.277344 148.09375 321.398438 147 319.179688 144.777344 L 296.96875 122.566406 C 292.558594 118.15625 292.558594 110.992188 296.96875 106.582031 C 301.378906 102.171875 308.542969 102.171875 312.953125 106.582031 L 335.164062 128.792969 C 339.574219 133.203125 339.574219 140.367188 335.164062 144.777344 C 332.976562 147 330.066406 148.09375 327.1875 148.09375 Z M 327.1875 148.09375 " fill-opacity="1" fill-rule="nonzero"/><path fill="#a87b05" d="M 440.679688 148.09375 C 437.773438 148.09375 434.894531 147 432.671875 144.777344 C 428.261719 140.367188 428.261719 133.203125 432.671875 128.792969 L 454.882812 106.582031 C 459.292969 102.171875 466.457031 102.171875 470.867188 106.582031 C 475.28125 110.992188 475.28125 118.15625 470.867188 122.566406 L 448.65625 144.777344 C 446.46875 147 443.589844 148.09375 440.679688 148.09375 Z M 440.679688 148.09375 " fill-opacity="1" fill-rule="nonzero"/><g clip-path="url(#8ec0432dbb)"><path fill="#a87b05" d="M 382.683594 691.066406 C 376.425781 691.066406 371.359375 685.996094 371.359375 679.742188 L 371.359375 648.332031 C 371.359375 642.078125 376.425781 637.007812 382.683594 637.007812 C 388.9375 637.007812 394.007812 642.078125 394.007812 648.332031 L 394.007812 679.773438 C 393.976562 686.027344 388.90625 691.066406 382.683594 691.066406 Z M 382.683594 691.066406 " fill-opacity="1" fill-rule="nonzero"/></g><path fill="#a87b05" d="M 304.945312 664.632812 C 302.035156 664.632812 299.160156 663.535156 296.9375 661.316406 C 292.527344 656.90625 292.527344 649.742188 296.9375 645.332031 L 319.148438 623.121094 C 323.558594 618.707031 330.722656 618.707031 335.132812 623.121094 C 339.542969 627.53125 339.542969 634.695312 335.132812 639.105469 L 312.921875 661.316406 C 310.734375 663.503906 307.855469 664.632812 304.945312 664.632812 Z M 304.945312 664.632812 " fill-opacity="1" fill-rule="nonzero"/><path fill="#a87b05" d="M 462.921875 664.632812 C 460.011719 664.632812 457.136719 663.535156 454.914062 661.316406 L 432.703125 639.105469 C 428.292969 634.695312 428.292969 627.53125 432.703125 623.121094 C 437.113281 618.707031 444.277344 618.707031 448.6875 623.121094 L 470.898438 645.332031 C 475.3125 649.742188 475.3125 656.90625 470.898438 661.316406 C 468.710938 663.503906 465.800781 664.632812 462.921875 664.632812 Z M 462.921875 664.632812 " fill-opacity="1" fill-rule="nonzero"/></svg>