<svg xmlns="http://www.w3.org/2000/svg" xmlns:xlink="http://www.w3.org/1999/xlink" width="1024" zoomAndPan="magnify" viewBox="0 0 768 767.999994" height="1024" preserveAspectRatio="xMidYMid meet" version="1.0"><defs><clipPath id="7db31843cc"><path d="M 109.054688 77 L 658.804688 77 L 658.804688 691.050781 L 109.054688 691.050781 Z M 109.054688 77 " clip-rule="nonzero"/></clipPath></defs><g clip-path="url(#7db31843cc)"><path fill="#a87b05" d="M 637.761719 371.921875 L 432.792969 371.921875 L 432.792969 279.550781 L 637.761719 279.550781 Z M 600.0625 669.933594 L 432.792969 669.933594 L 432.792969 393.074219 L 600.0625 393.074219 Z M 356.308594 669.933594 L 356.308594 393.074219 L 411.636719 393.074219 L 411.636719 669.933594 Z M 167.886719 393.074219 L 335.15625 393.074219 L 335.15625 669.933594 L 167.886719 669.933594 Z M 130.191406 279.550781 L 335.15625 279.550781 L 335.15625 371.921875 L 130.191406 371.921875 Z M 195.402344 157.066406 C 193.199219 143.28125 209.113281 127.214844 220.730469 115.488281 C 231.605469 104.507812 241.164062 99.203125 250.804688 98.800781 C 262.824219 98.296875 276.628906 105.691406 291.863281 120.785156 C 308.394531 137.160156 333.449219 167.914062 352.140625 199.699219 C 361.144531 215.011719 367.453125 228.65625 370.375 239.167969 C 371.601562 243.566406 372.140625 247.097656 372.226562 249.824219 L 223.808594 184.527344 C 211.796875 178.335938 197.238281 168.589844 195.402344 157.066406 Z M 396.464844 239.167969 C 399.386719 228.65625 405.695312 215.011719 414.699219 199.699219 C 433.390625 167.914062 458.445312 137.160156 474.976562 120.785156 C 490.210938 105.691406 504.035156 98.300781 516.035156 98.800781 C 525.679688 99.203125 535.238281 104.507812 546.105469 115.488281 C 557.726562 127.214844 573.640625 143.28125 571.441406 157.066406 C 569.601562 168.589844 555.042969 178.335938 543.035156 184.527344 L 394.617188 249.824219 C 394.703125 247.097656 395.242188 243.566406 396.464844 239.167969 Z M 411.636719 371.921875 L 356.308594 371.921875 L 356.308594 279.550781 L 411.636719 279.550781 Z M 648.335938 258.398438 L 427.65625 258.398438 L 551.839844 203.757812 C 552.03125 203.675781 552.222656 203.585938 552.410156 203.492188 C 576.625 191.074219 589.6875 176.984375 592.332031 160.402344 C 596.21875 136.019531 575.945312 115.546875 561.140625 100.597656 C 546.480469 85.800781 532.015625 78.296875 516.925781 77.660156 C 498.554688 76.898438 479.957031 86.074219 460.089844 105.753906 C 439.054688 126.59375 413.484375 160.039062 396.464844 188.972656 C 391.238281 197.855469 386.890625 206.160156 383.421875 213.832031 C 379.953125 206.160156 375.601562 197.855469 370.375 188.972656 C 353.355469 160.039062 327.785156 126.59375 306.75 105.753906 C 286.886719 86.082031 268.292969 76.890625 249.917969 77.660156 C 234.824219 78.296875 220.359375 85.800781 205.703125 100.597656 C 190.898438 115.546875 170.617188 136.019531 174.511719 160.402344 C 177.15625 176.984375 190.214844 191.074219 214.433594 203.492188 C 214.621094 203.585938 214.808594 203.675781 214.996094 203.757812 L 339.1875 258.398438 L 119.609375 258.398438 C 113.769531 258.398438 109.035156 263.132812 109.035156 268.972656 L 109.035156 382.496094 C 109.035156 388.339844 113.769531 393.074219 119.609375 393.074219 L 146.734375 393.074219 L 146.734375 680.511719 C 146.734375 686.355469 151.46875 691.089844 157.3125 691.089844 L 610.636719 691.089844 C 616.480469 691.089844 621.214844 686.355469 621.214844 680.511719 L 621.214844 393.074219 L 648.335938 393.074219 C 654.179688 393.074219 658.917969 388.339844 658.917969 382.496094 L 658.917969 268.972656 C 658.917969 263.132812 654.179688 258.398438 648.335938 258.398438 " fill-opacity="1" fill-rule="nonzero"/></g></svg>