<svg xmlns="http://www.w3.org/2000/svg" xmlns:xlink="http://www.w3.org/1999/xlink" width="1024" zoomAndPan="magnify" viewBox="0 0 768 767.999994" height="1024" preserveAspectRatio="xMidYMid meet" version="1.0"><path fill="#a87b05" d="M 384.546875 77.359375 C 214.382812 77.933594 78.378906 216.292969 80.601562 386.445312 C 80.703125 394.996094 81.164062 403.523438 81.984375 412.035156 C 82.804688 420.542969 83.984375 429.003906 85.519531 437.414062 C 87.054688 445.824219 88.941406 454.15625 91.179688 462.40625 C 93.417969 470.65625 96.003906 478.800781 98.929688 486.832031 C 101.855469 494.867188 105.113281 502.761719 108.707031 510.519531 C 112.300781 518.277344 116.214844 525.867188 120.449219 533.296875 C 124.683594 540.722656 129.222656 547.957031 134.070312 555 C 138.914062 562.046875 144.046875 568.871094 149.46875 575.480469 C 150.324219 576.527344 151.09375 577.625 151.777344 578.785156 C 152.464844 579.945312 153.0625 581.148438 153.570312 582.394531 C 154.078125 583.644531 154.488281 584.921875 154.804688 586.234375 C 155.121094 587.542969 155.335938 588.867188 155.453125 590.210938 C 155.570312 591.550781 155.589844 592.894531 155.503906 594.238281 C 155.421875 595.585938 155.238281 596.914062 154.957031 598.230469 C 154.671875 599.550781 154.292969 600.839844 153.816406 602.097656 C 153.34375 603.359375 152.777344 604.578125 152.117188 605.753906 L 125.84375 652.835938 C 118.558594 665.890625 130.429688 681.328125 144.914062 677.636719 L 233.910156 654.980469 C 237.011719 654.191406 240.15625 653.960938 243.34375 654.289062 C 246.527344 654.613281 249.5625 655.480469 252.441406 656.878906 C 262.25 661.648438 272.289062 665.871094 282.554688 669.554688 C 292.820312 673.238281 303.257812 676.363281 313.859375 678.921875 C 324.460938 681.480469 335.171875 683.460938 345.988281 684.867188 C 356.804688 686.273438 367.664062 687.089844 378.570312 687.324219 C 549.65625 691.195312 690.085938 554.484375 690.621094 383.355469 C 691.148438 214.097656 553.816406 76.789062 384.546875 77.359375 Z M 385.597656 649.820312 C 381.222656 649.820312 376.847656 649.710938 372.476562 649.496094 C 368.105469 649.28125 363.742188 648.960938 359.386719 648.53125 C 355.03125 648.101562 350.6875 647.566406 346.359375 646.925781 C 342.027344 646.285156 337.71875 645.535156 333.425781 644.683594 C 329.132812 643.828125 324.863281 642.871094 320.617188 641.804688 C 316.371094 640.742188 312.15625 639.574219 307.964844 638.304688 C 303.777344 637.035156 299.625 635.660156 295.503906 634.1875 C 291.382812 632.714844 287.300781 631.136719 283.253906 629.464844 C 279.210938 627.789062 275.210938 626.015625 271.253906 624.144531 C 267.296875 622.273438 263.390625 620.304688 259.53125 618.242188 C 255.667969 616.179688 251.863281 614.023438 248.109375 611.773438 C 244.355469 609.523438 240.65625 607.183594 237.019531 604.75 C 233.378906 602.320312 229.800781 599.800781 226.285156 597.191406 C 222.769531 594.585938 219.320312 591.890625 215.9375 589.117188 C 212.554688 586.339844 209.242188 583.480469 206 580.542969 C 202.753906 577.601562 199.585938 574.585938 196.492188 571.492188 C 193.398438 568.394531 190.378906 565.226562 187.441406 561.984375 C 184.5 558.742188 181.644531 555.425781 178.867188 552.042969 C 176.089844 548.660156 173.398438 545.210938 170.789062 541.695312 C 168.183594 538.179688 165.664062 534.601562 163.234375 530.964844 C 160.800781 527.324219 158.460938 523.628906 156.210938 519.875 C 153.960938 516.121094 151.804688 512.3125 149.738281 508.453125 C 147.675781 504.59375 145.710938 500.683594 143.835938 496.726562 C 141.964844 492.769531 140.195312 488.769531 138.519531 484.726562 C 136.84375 480.683594 135.269531 476.601562 133.792969 472.480469 C 132.320312 468.359375 130.945312 464.203125 129.675781 460.015625 C 128.40625 455.828125 127.238281 451.609375 126.175781 447.363281 C 125.113281 443.117188 124.152344 438.851562 123.300781 434.558594 C 122.445312 430.265625 121.699219 425.953125 121.054688 421.625 C 120.414062 417.292969 119.878906 412.953125 119.449219 408.59375 C 119.019531 404.238281 118.699219 399.875 118.484375 395.503906 C 118.269531 391.132812 118.160156 386.757812 118.160156 382.382812 C 118.160156 234.683594 237.898438 114.945312 385.597656 114.945312 C 532.726562 114.945312 652.105469 233.753906 653.03125 380.660156 C 653.960938 528.066406 533.011719 649.820312 385.597656 649.820312 Z M 385.597656 649.820312 " fill-opacity="1" fill-rule="nonzero"/><path fill="#a87b05" d="M 337.800781 252.363281 L 337.925781 252.605469 L 353.875 284.242188 C 354.734375 285.941406 355.449219 287.703125 356.023438 289.519531 C 356.597656 291.335938 357.019531 293.1875 357.296875 295.074219 C 357.570312 296.957031 357.695312 298.851562 357.664062 300.757812 C 357.632812 302.664062 357.449219 304.554688 357.113281 306.429688 C 356.777344 308.304688 356.292969 310.140625 355.660156 311.9375 C 355.03125 313.738281 354.257812 315.472656 353.347656 317.144531 C 352.433594 318.816406 351.394531 320.40625 350.226562 321.914062 C 349.058594 323.417969 347.777344 324.820312 346.382812 326.117188 C 344.992188 327.40625 343.714844 328.796875 342.550781 330.289062 C 341.386719 331.785156 340.347656 333.363281 339.4375 335.023438 C 338.523438 336.683594 337.753906 338.40625 337.117188 340.191406 C 336.484375 341.976562 335.996094 343.800781 335.652344 345.664062 C 335.3125 347.527344 335.121094 349.402344 335.082031 351.296875 C 335.042969 353.191406 335.15625 355.078125 335.417969 356.953125 C 335.683594 358.828125 336.09375 360.671875 336.652344 362.480469 C 337.214844 364.289062 337.914062 366.042969 338.757812 367.742188 C 348.332031 386.96875 364.921875 413.472656 390.238281 432.59375 C 391.648438 433.664062 393.128906 434.625 394.683594 435.476562 C 396.238281 436.324219 397.847656 437.054688 399.511719 437.664062 C 401.175781 438.273438 402.875 438.753906 404.609375 439.109375 C 406.347656 439.460938 408.097656 439.6875 409.867188 439.777344 C 411.636719 439.871094 413.402344 439.832031 415.164062 439.660156 C 416.925781 439.488281 418.667969 439.1875 420.386719 438.753906 C 422.105469 438.320312 423.78125 437.765625 425.414062 437.082031 C 427.050781 436.398438 428.625 435.597656 430.136719 434.679688 L 440.410156 428.429688 C 442.714844 427.027344 445.144531 425.90625 447.707031 425.058594 C 450.265625 424.210938 452.890625 423.664062 455.574219 423.417969 C 458.261719 423.167969 460.9375 423.226562 463.613281 423.59375 C 466.285156 423.957031 468.878906 424.617188 471.402344 425.574219 L 512.230469 441.097656 C 513.316406 441.511719 514.378906 441.976562 515.414062 442.492188 C 516.453125 443.007812 517.464844 443.574219 518.449219 444.191406 C 519.433594 444.808594 520.382812 445.46875 521.300781 446.179688 C 522.21875 446.886719 523.101562 447.640625 523.945312 448.4375 C 524.789062 449.234375 525.589844 450.070312 526.351562 450.941406 C 527.113281 451.816406 527.832031 452.726562 528.503906 453.671875 C 529.179688 454.617188 529.800781 455.59375 530.378906 456.601562 C 530.957031 457.609375 531.480469 458.640625 531.957031 459.699219 C 532.433594 460.757812 532.855469 461.835938 533.222656 462.9375 C 533.59375 464.035156 533.90625 465.152344 534.167969 466.28125 C 534.425781 467.414062 534.628906 468.554688 534.777344 469.703125 C 534.925781 470.855469 535.015625 472.011719 535.050781 473.167969 C 535.085938 474.328125 535.0625 475.488281 534.980469 476.644531 C 534.902344 477.800781 534.765625 478.953125 534.574219 480.097656 C 534.378906 481.242188 534.132812 482.375 533.828125 483.492188 C 533.523438 484.613281 533.164062 485.714844 532.753906 486.800781 C 532.277344 488.046875 531.734375 489.261719 531.121094 490.449219 L 519.808594 512.378906 C 519.351562 513.265625 518.855469 514.128906 518.328125 514.972656 C 517.796875 515.816406 517.230469 516.636719 516.632812 517.433594 C 516.03125 518.230469 515.402344 519 514.738281 519.742188 C 514.074219 520.484375 513.378906 521.195312 512.65625 521.882812 C 511.929688 522.566406 511.179688 523.21875 510.398438 523.839844 C 509.621094 524.460938 508.816406 525.046875 507.988281 525.597656 C 507.160156 526.152344 506.308594 526.667969 505.4375 527.152344 C 504.5625 527.632812 503.671875 528.074219 502.761719 528.480469 C 501.851562 528.886719 500.925781 529.253906 499.988281 529.582031 C 499.046875 529.910156 498.09375 530.199219 497.128906 530.445312 C 496.164062 530.695312 495.1875 530.902344 494.207031 531.066406 C 493.222656 531.230469 492.238281 531.355469 491.242188 531.4375 C 490.25 531.519531 489.257812 531.5625 488.261719 531.558594 C 487.265625 531.558594 486.269531 531.515625 485.277344 531.429688 C 484.285156 531.34375 483.296875 531.21875 482.316406 531.046875 C 481.332031 530.878906 480.359375 530.671875 479.394531 530.417969 C 415.269531 513.828125 262.4375 456.160156 250.125 281.773438 C 250 280.050781 250.003906 278.332031 250.136719 276.609375 C 250.265625 274.890625 250.519531 273.1875 250.894531 271.503906 C 251.273438 269.820312 251.773438 268.171875 252.390625 266.5625 C 253.011719 264.949219 253.742188 263.394531 254.589844 261.890625 C 255.433594 260.386719 256.386719 258.949219 257.441406 257.585938 C 258.496094 256.222656 259.648438 254.941406 260.890625 253.742188 C 262.132812 252.546875 263.457031 251.445312 264.859375 250.441406 C 266.261719 249.4375 267.730469 248.542969 269.265625 247.75 L 290.09375 237.054688 C 291.125 236.523438 292.179688 236.042969 293.257812 235.617188 C 294.335938 235.191406 295.433594 234.816406 296.550781 234.5 C 297.664062 234.179688 298.792969 233.914062 299.9375 233.707031 C 301.078125 233.5 302.226562 233.347656 303.382812 233.253906 C 304.539062 233.15625 305.699219 233.117188 306.859375 233.136719 C 308.019531 233.15625 309.175781 233.230469 310.328125 233.363281 C 311.480469 233.496094 312.625 233.683594 313.757812 233.929688 C 314.890625 234.171875 316.011719 234.472656 317.117188 234.828125 C 318.222656 235.179688 319.304688 235.589844 320.371094 236.050781 C 321.4375 236.511719 322.476562 237.023438 323.492188 237.585938 C 324.503906 238.148438 325.488281 238.761719 326.445312 239.421875 C 327.398438 240.082031 328.316406 240.785156 329.203125 241.535156 C 330.089844 242.289062 330.933594 243.078125 331.742188 243.914062 C 332.546875 244.746094 333.3125 245.617188 334.035156 246.527344 C 334.757812 247.433594 335.433594 248.375 336.0625 249.351562 C 336.691406 250.328125 337.269531 251.328125 337.800781 252.363281 Z M 337.800781 252.363281 " fill-opacity="1" fill-rule="nonzero"/></svg>